<?xml version='1.0' encoding='utf-8'?>
<svg xmlns="http://www.w3.org/2000/svg" enable-background="new 0 0 5000 3851.5632" version="1.1" viewBox="0 0 5e3 3851.6"> <path d="m4263.6 1787.2c-11.342-2.6401-28.734-9.74-39.948-9.0292 6.4746 5.5808 12.611 10.133 20.143 14.212 104.61 46.605 217.77 52.449 325.21 11.627 26.364-10.023 56.79-23.152 79.684-39.785l-4.2319-0.1989c-193.69 64.71-284.38 41.824-380.86 23.174z"/> <path d="m720.21 1300.3c127.31-116.38 249.81-193.19 385.3-282.87 200.05-126.58 294.77-167.2 620.8-314.15l-2.3612-1.9886c-63.733 15.99-220.84 81.994-280.77 107.57-220.21 93.979-339.8 166.17-462.02 237.78-219.27 141.77-411.78 336.65-507.09 471.26-20.427 28.853-77.19 100.37-82.282 124.7 35.565-30.873 190.35-216.07 328.41-342.3z"/> <path d="m5e3 1870.7c-80.785 65.789-175.58 121.71-280.78 135.1-80.516 10.263-239.99-5.5271-331.35-50.219-12.907-6.3213-26.871-12.181-38-21.371 108.25 19.119 240.35 94.268 462.02-41.718-51.33 12.233-119.06 57.614-276.72 59.891-24.459 0.3511-50.315 1.1212-74.436-3.1947 57.594-3.8458 115.27-9.3463 171.26-23.829 158.83-41.084 296.98-156.01 358.9-284.81-53.659 39.586-102.41 85.434-157.85 122.8-99.362 66.944-221.91 103.93-341.63 105.67-81.732 1.1854-140.07-0.7218-283.99-94.294-21.074-13.709-42.064-26.127-60.853-43.094 39.694 12.858 79.261 26.288 120.31 34.098 202.7 38.573 423.84-24.319 584.92-200.17-217.41 95.837-383.31 159.79-616.19 107.03-24.587-5.5638-49.681-10.582-73.506-18.782 36.456 2.3517 144.65 21.321 295.34-26.482 27.676-8.7795 62.672-21.181 85.778-39.425-226.35 63.715-377.36 44.753-424.45 46.855-11.765 0.5204-24.799-3.829-36.182-6.4523-13.965-3.2198-30.173-5.179-43.248-10.84-26.669-11.504-53.663-34.843-76.76-52.36 75.822 15.984 215.27 69.183 467.1-3.5415 56.79-16.4 116.67-38.816 166.27-71.298 27.379-17.923 60.303-40.018 78.542-67.545-26.533 13.438-55.351 20.614-83.705 29.068-120.27 35.867-242.48 52.542-367.49 59.84-105.82 6.188-200.54 8.5112-301.28-24.071-33.194-10.734-64.031-24.066-93.615-42.594 87.643 4.6561 232.02 47.884 369.93-1.0789 25.688-9.1138 53.49-20.673 75.834-36.447-102.45 29.453-224.2 53.346-330.21 34.788 23.007-3.9825 45.19-11.807 67.776-18.401 115.55-33.739 219.95-89.996 306.78-174.22 21.764-21.108 51.31-51.286 66.523-77.56-105.39 60.314-236.4 145.31-426.27 180.43-26.594-29.457-133.61-128.2-205.64-170.39 18.149-12.433 201.79-55.275 367.85-268.83-261.26 181.91-397.8 199.26-436.87 216.45-95.304-61.661-239.59-134.67-325.43-161.16 90.101-88.443 165.18-231.63 185.21-295.87-33.725 48.299-150.92 178.27-260.89 261.77l-266.47-66.712c33.698-50.219 64.996-100.83 89.087-156.45 7.2322-16.7 16.39-35.017 20.262-52.669-57.126 75.021-75.644 103.51-149.23 170.14-10.69 9.6808-22.183 22.306-34.815 29.279-66.155-13.413-135.12-23.715-202.77-23.631 56.482-94.495 93.236-167.15 123.03-329.08l665.09 119.4c-33.664-21.109-79.87-31.686-118.01-41.904-170.19-45.59-343.35-66.572-517.44-90.228-11.384-1.5482-23.266-0.1224-28.116-11.445l1.5911-10.967c10.351-3.5794 24.828-0.4234 35.703 0.7063 558.51 64.653 709.43 152.63 952.55 256.65-16.55-16.573-39.63-28.712-59.934-40.314-78.394-44.782-163.22-75.419-247.68-106.37-200.44-73.433-281.56-101.83-512.84-144.47-3.6392-0.6472-16.106-1.3369-18.315-2.8434-1.0369-0.7108-1.6675-1.8869-2.501-2.8264 32.318-0.9097 67.387 4.8448 99.438 9.135 307.81 41.201 582.18 192.24 651.26 204.12l-26.216-26.258c307.74 165.7 380.05 205.5 647.48 421.78 18.112 15.545 34.235 32.541 53.405 46.94-6.7705-14.094-19.635-25.873-30.215-37.179-81.517-87.23-194.82-173.14-292.54-240.93-171.55-119.02-230.41-140.56-455.41-250.94-29.448-14.72-59.266-27.802-87.665-44.57 127.07 34.475 246.66 97.303 360.67 162.23 419.64 238.97 513.9 364.83 850.73 710.79-55.987-149.81-229.94-356.38-345.95-472.82l-55.902-51.712c-14.557-12.334-30.723-23.914-43.418-38.143 26.165-40.805 62.117-81.556 74.945-187.2 1.8618-15.177 5.4165-33.688 3.4277-48.789-50.527 61.469-128.77 104.89-203.29 131.22l-115.78-75.868c39.165-65.692 44.345-107.02 45.703-202.59 0.3813-25.619 1.1006-54.26-4.2314-79.341-38.213 69.618-90.01 120.86-160.06 157.9-15.962 8.437-32.246 18.1-49.571 23.293-2.6072 0.7782-110.24-47.054-125.48-52.864 41.606-70.342 55.495-148.8 54.721-229.54-0.428-44.97-1.7136-58.926-10.791-86.3-14.297 36.196-28.394 130.13-204.13 246.78-50.718-21.175-178.96-64.068-218.66-67.867 36.008-96.122 41.412-190.4 14.452-289.53-6.2396-22.945-10.987-42.215-20.71-62.442-3.6519 16.167-6.1189 32.977-10.956 48.807-29.25 95.705-94.635 205.87-178.51 262.7l-198.48-31.031c6.1357-65.734-3.707-123.5-24.138-186.05-25.319-77.481-32.952-72.373-35.31-88.284l-6.0554-1.1347c-8.4255 19.163-9.2087 44.092-14.934 64.578-20.884 74.738-56.553 143.07-108.82 200.54-187.87-8.7922-376.26-1.3667-563 19.412-462.9 51.515-859.79 180.99-1266 442.13-208.04 133.76-364.41 267.68-462.37 372.45-129.35 138.34-319.06 399.22-411.51 619.29-18.777 44.697-41.352 95.474-48.322 143.6l-0.0926 2.6277c199.15-305.14 245.59-381.22 288.4-424-43.777 99.818-154.03 272.6-183.52 349.23 94.992-141.35 58.099-87.586 162.15-235.61 50.062-72.127 102.84-152.99 169.19-210.76-19.504 33.523-45.949 61.947-68.216 93.545-79.947 124.74-122.35 188.04-147.12 244.24 139.12-177.63 94.406-123.95 198.91-240.8 219.54-243.27 360.32-350.47 596.47-490.56 265.4-157.43 419.41-220.89 626.7-290.35 237.21-79.481 478.8-132.42 727.66-158.16 73.082-7.5525 148.56-5.7036 221.93-5.7417 48.856-0.0252 100.88-2.5427 149.34 2.3148-11.935 24.222-77.719 206.15-200.6 323.71l-217.82 2.124c37.663-85.468 66.735-186.91 68.106-280.72-32.866 84.755-60.137 168.82-151.29 282.76l-337.07 40.555c-1.7518-11.576 5.3702-30.836 6.7921-43.229 8.1055-70.533 9.3534-175.17 4.1766-189.72-13.487 84.914-33.558 164.24-68.241 243.15-203.87 25.545-697.46 143.09-1041.3 420.44-268.85 216.87-348.36 433.43-518.12 615.68-174.36 187.2-265.91 211.85-327.98 307.33-85.038 130.83-65.81 326.34 119.35 468.16 89.067 68.206 118.25 69.25 226.26 92.352 64.124 13.718 177.9 48.419 231.86 84.994-49.359 23.737-100.38 51.484-131.04 98.894 53.049-32.503 102.46-59.62 162.5-77.315l72.791 44.875c-64.732 16.711-125.57 53.005-164.79 93.05-27.511 28.076-24.454 26.427-39.36 57.674 88.381-70.348 117.7-90.169 240.51-128.65l75.093 49.669c-12.623 9.0249-36.503 12.418-51.581 17.377-49.258 16.201-116.67 52.634-145.15 96.862-5.4252 8.4197-9.204 19.061-13.119 28.319 75.275-60.814 153.74-94.708 246.78-117.79l77.509 53.05c-94.534 26.351-187.08 54.01-240.48 142.66 87.246-60.386 174.35-96.651 278.17-118.46 21.645 19.455 44.984 34.166 68.842 50.638-86.201 31.513-158.89 72.724-201.4 157.74 55.906-52.614 117.86-90.067 188.65-118.67 16.386-6.6177 34.176-15.3 51.348-19.104 24.532 19.552 50.946 32.816 76.764 50.079-116.56 47.667-189.07 127.24-205.49 168.26-3.0935 7.7217-3.9357 16.34-4.8539 24.544 45.356-36.829 133.54-139.91 244.27-174.4l82.558 42.053c-62.838 44.007-139.22 114.21-153.7 192.93l-4.1598 37.052c21.614-38.498 65.268-134.48 188.15-215.45l104.72 43.741c-56.816 37.399-126.21 94.607-140.88 164.93-2.8225 13.518-4.6295 27.557-0.3976 40.898l3.9269 3.9688c11.368-25.364 18.651-83.326 119.83-162.1 15.163-11.805 31.247-24.629 49.068-32.055l95.96 34.568c-71.906 34.018-148.38 83.666-177.51 162.33-7.3929 19.958-7.922 40.944-8.4847 61.956 3.7155-5.9404 6.424-11.589 8.9587-18.126 32.182-83.073 125.83-153.28 205.52-188.17 16.776-7.356 5.7529-9.4663 102.56 22.78-58.53 53.65-118.66 115.66-122.87 200.32-1.0452 21.084 0.7449 46.436 9.5637 65.954 5.2052-29.08 10.114-58.008 20.351-85.845 35.773-97.309 123.38-169.86 137.29-171.93l124.9 32.389c-70.171 56.583-143.18 123.02-153.89 218.09-1.3795 12.253-1.536 26.643 3.4106 38.092l3.3983-1.0366c12.779-44.185 27.056-109.09 133.36-201.59 18.091-15.743 36.059-32.198 56.672-44.608l90.391 16.505c-65.614 57.094-120.39 117.4-126.39 208.97-2.0778 31.746 0.11 61.761 10.228 92.132 5.5372-99.953 22.667-173.19 116.56-257.5 15.298-13.734 31.679-27.574 49.575-37.741l125.26 16.446c-52.512 41.549-95.257 91.891-103.8 160.7-4.1174 33.155 1.6421 80.556 21.768 108.51-1.3281-56.605-10.874-129.05 69.168-212.92 18.48-19.366 39.571-35.385 60.857-51.467l52.584 3.8755c-46.719 62.599-78.914 143.57-66.917 223.1 4.8877 32.38 17.617 59.976 32.094 88.933-12.196-88.971-10.969-193.63 45.999-268.79l34.129-41.672 120.58 2.1409c-34.269 84.347-25.564 169.68 9.3523 252.52l27.591 56.794c-19.31-103.53-43.613-206.04-1.7649-307.63 26.326-0.9348 54.298-3.6384 80.467-1.1929 75.22 80.696 56.812 202.28 62.592 303.3 33.75-98.918 40.865-227.48-23.909-307.69 45-3.7107 93.137-11.818 138.08-10.823 52.296 94.188 54.26 189.33 44.878 293.65 36.258-97.74 39.748-203.29-6.5591-298.86l70.734-7.0745c6.6606-0.8079 21.544-4.4172 27.346-2.8347 11.649 3.1807 114.79 72.676 121.8 185.61 2.188 35.292-0.6726 70.74-5.4968 105.67 24.68-36.594 38.615-106.7 30.35-149.81-12.04-62.781-53.494-109.64-100.79-149.8l91.207-18.003c7.6638-1.79 30.257-9.6978 37.265-8.3481 1.832 0.3513 7.0708 4.8826 8.6963 6.0632 52.897 38.359 86.958 112.55 96.687 175.68l4.9299 70.071c5.3066-18.562 12.475-37.661 15.658-56.633 7.5366-44.934-4.9641-95.208-26.791-134.42-14.401-25.869-34.112-48.442-54.095-70.122l56.968-12.118c25.138-6.2935 18.816-14.022 57.666 13.852 70.743 50.752 108.12 131.13 123.85 214.81 19.81-93.188-32.436-192.39-112.83-248.17l65.389-21.003c21.606-6.582 25.431-17.842 90.323 12.355 66.287 30.84 128.19 92.83 152.7 162.32 2.8142 7.9929 4.7947 16.133 8.5903 23.745-0.0671-29.275 7.457-86.451-63.929-157.41-32.792-32.592-72.913-53.95-115.59-70.545 37.869-9.5918 92.179-40.879 103.1-42.861 15.919-2.8943 43.655 10.425 57.082 18.062 70.15 39.916 113.23 107.74 151.81 176.11 5.9668-12.829-2.8438-34.136-7.3501-46.639-28.768-79.849-79.871-133.86-155.86-169.32l53.993-24.976c32.817-16.961 27.102-24.192 83.764-2.2805 83.933 32.482 134.91 108.62 183.92 179.23-5.324-19.175-10.009-39.612-17.901-57.873-25.907-59.938-75.562-108.59-131.67-140.51-13.546-7.709-31.747-10.916-43.833-19.429 14.253-7.3113 28.92-14.352 42.661-22.577 31.117-18.634 22.954-27.36 81.694-8.3818 112.74 36.421 164.92 128.71 197.17 170.68-29.669-105.32-97.003-177.28-208.17-203.87 43.036-19.084 42.629-32.671 53.815-37.196 5.2642-2.1328 16.31-0.8804 22.01-0.7363 42.952 1.083 87.001 14.03 126.97 29.152 64.678 24.468 119.41 66.957 171.12 111.73-9.437-14.39-18.662-29.906-29.665-43.128-50.4-60.53-128.18-109.32-205.56-125.74l-35.416-4.0828 84.559-57.335c8.7969-3.616 106.87 2.3071 202.24 52.842 56.471 30.915 83.303 72.571 131.14 106.46-37.409-79.27-111.04-145.2-193.14-174.68-28.142-10.087-61.065-21.105-90.708-23.631 8.616-7.5947 28.095-29.224 38.226-32.397 4.1343-1.2905 17.486 1.0068 22.522 1.3284 119.08 7.6487 137.34 21.919 242.99 104.89-8.5908-14.822-16.927-31.006-27.252-44.626-41.394-54.504-113.83-96.233-201.31-100.5 39.769-40.481 56.97-46.246 126.36-46.623 84.508-0.4482 163.47 43.75 230.63 91.315-81.575-102.16-186.81-139.28-282.09-124.22 8.6748-7.7217 20.185-20.576 30.341-25.59 8.4634-4.1675 21.286-5.9912 30.595-8.2632 77.128-18.882 79.559-15.135 134.66-9.5835 15.912 1.8828 31.273 6.9434 46.887 10.43 43.291 9.6638 89.079 40.322 127.33 62.049-59.118-69.026-130.38-106.04-220.86-113.41-22.047-1.7981-45.026-1.3965-66.862 2.4331 9.3955-12.27 26.28-38.96 41.345-42.738 99.186-24.846 157.33-51.86 334.56 48.091-54.59-62.625-139.99-105.57-223.35-111.43-26.153-1.8362-46.888 2.323-71.814 8.5129 51.436-65.957 45.286-59.753 47.523-61.101 3.1738-1.9041 12.188-2.3652 16.377-3.1606 104.66-16.28 155.39-29.924 327.07 61.249-96.49-98.15-225.45-125.94-308.88-102.83 40.04-56.92 38.072-54.686 39.863-55.834 6.6021-4.2268 30.723-5.8176 39.398-7.3831 84.456-15.209 154.25-12.436 281.07 52.804-60.726-55.871-149.25-100.72-233.64-98.203l-57.51 7.3833c8.6748-17.102 22.64-34.648 34.447-49.817 177.08-30.026 241.9 4.3167 323.14 36.603-62.038-61.27-159.96-80.953-244.6-80.467-20.651 0.1187-40.117 1.8408-60.303 6.1733l34.193-51.01c46.182-6.1099 104.73-19.357 243.41 0.8887-45.365-30.993-122.04-41.74-176.42-39.315-12.695 0.5669-38.213 6.7488-49.427 3.2581l28.861-45.408c91.11-13.438 180.65-44.676 260.93-89.686 40.423-22.666 72.738-43.816 99.828-80.628-70.544 38.74-144.56 72.656-225.09 83.805-13.456 1.8618-29.115 5.2002-42.486 3.7996l-50.02-39.336c67.413 0.0974 131.82-2.5344 193.9-32.96 12.06-5.9104 27.675-13.146 37.704-21.976-18.62 4.5188-35.927 13.011-54.462 17.965-52.178 13.912-172.7 35.706-219.84 7.1677-16.631-10.057-31.78-24.925-46.506-37.589 250.01 48.542 446.06-84.43 477.13-208.6zm-4219-848.71c51.581-39.015 106.74-70.93 168.35-91.184l5.8821-0.2073c-1.3858 3.8543 2.498 0.7727-99.523 56.367-32.411 19.802-64.331 42.95-98.52 59.485l-6.4619 1.1042c6.0643-9.0165 21.311-18.79 30.27-25.564zm-160.02 188.09-2.5009-1.5446c13.673-16.192 81.555-79.935 147.37-125.5 31.692-28.416 186.9-131.83 226.78-141.05-269.41 186.28-186.35 125.96-371.65 268.1zm394.65-355.2c9.5671-11.348 16.995-12.933 307.87-135.93 54.607-21.033 109.54-42.332 166.44-56.362l11.612 0.7404c-5.4122 7.2564-90.39 34.056-104.99 39.709l-370.17 149.72-10.761 2.1241zm487.74-139.02c-63.09 25.394-21.104 6.9588-205.35 91.92l-145.07 78.254c-31.247 18.249-103.5 65.704-119.59 63.28 110.12-94.751 245.32-158.2 380.66-208.36 37.168-13.776 75.474-28.864 114.17-37.632l7.9346-0.127c-9.1282 6.1521-22.412 8.9361-32.754 12.664zm363.61-153.91c-69.591 20.669-143.08 28.873-213.91 45.002-3.0298 1.2397-5.5266 1.0536-8.7596 1.1467 32.547-18.892 73.506-29.99 109.29-41.718 98.66-32.351 199.25-62.98 302.29-77.767 4.9216 0.1054 5.002-0.072 8.7134 3.1014-22.365 6.4012-47.117 10.992-68.766 19.107-43.583 16.332-83.802 37.749-128.86 51.128zm183.17-31.754c34.828-14.69 74.238-22.746 111.06-31.006 159.71-35.828 215.83-34.181 289.05-35.634-385.01 67.168-367.67 66.012-400.11 66.64zm375.91-117.37-147.52 13.095c-38.78 4.375-79.896 13.193-118.79 10.781 110.76-23.165 315.6-57.614 426.42-32.287-24.163 5.8925-39.578 5.0216-160.1 8.4114zm384.25 71.954-235.87-14.522c32.516-8.5937 156.17-8.7289 222.7-5.2037 12.112 0.6426 35.995-0.4234 45.619 6.8247l-0.3176 6.613c-12.831 9.4058-16.652 7.172-32.128 6.2875zm903.47 709.52 232.76 160.99c-51.31 15.234-234.82 12.335-270.97 0.0637-25.218-8.5553 4.7876-0.2509-171.02-88.692 177.02-20.479 190.69-0.2594 296.88 52.038-29.087-39.429-95.63-73.666-144.32-84.101-27.066-5.7964-54.26-6.3296-81.808-7.345l138.49-32.952zm-380.51-198.3c113.47 37.576 268.73 118.81 301.67 143.32-18.602 8.3523-47.734 9.3975-68.199 11.669-58.17 6.4482-116.94 11.504-175.49 11.826-13.326 0.072-32.064 2.4327-44.802-1.0282-3.8169-1.0366-4.1765-0.1735-7.8792 1.2439-6.1028-0.6854-12.717-0.4399-17.469-4.7556l51.259-18.177c32.737-14.694 76.316-38.08 96.298-69.11-30.025-9.5793-110.06 38.053-207.2 53.616-39.182 6.2747-79.151 4.0916-118.49 0.9563 100.57-41.488 140.4-85.085 190.29-129.56zm-341.98-93.647c88.321 12.27 169.85 35.863 255.62 58.55-203.68 136.77-311.86 121.32-473.7 118.72 107.23-44.697 204.18-99.786 320.76-118.21-11.062-3.6048-24.074-2.7755-35.657-2.729-52.394 0.2032-111.76 20.136-159.9 40.056 34.544-28.894 63.21-62.722 92.883-96.389zm-279.68-31.001 192.66 14.005c-11.384 12.46-137.51 100.2-238.31 136.65-29.773 10.759-77.648 14.512-118.46 19.057 7.0459-8.4409 18.777-15.541 27.621-22.315 69.706-53.402 128.24-65.441 158.69-79.951-37.502 8.4963-70.421 14.305-105.48 30.929l83.277-98.377zm-315.85-5.0647c117.86-5.3495 71.366-4.3241 204.45-3.8672-30.449 36.732-142.82 127.94-216.59 162.16-41.442 19.222-88.926 33.146-133.64 42.222 188.84-117.87 134.32-81.111 246.18-164.2-48.737 18.706-91.11 48.128-134.48 76.612l-99.862 60.851c50.438-55.74 95.862-108.51 133.94-173.78zm-430.02 106.84c21.946-2.0182 44.07-8.0135 65.605-12.71 142.6-30.979 122.72-24.918 136.08-29.237-40.419-5.937-93.965 5.5635-197.03 22.285l11.333-38.016c325.11-47.61 296.53-44.399 313.45-43.652l0.1355 3.4611c-20.086 24.533-118.55 123-217.74 177.76-55.576 30.684-118.41 53.451-179.23 71.201 67.796-148.78 55.352-120.4 67.387-151.09zm-325.97 29.186c63.96-25.525 213.45-64.211 265.88-71.971l8.3154 0.4611c-2.2823 11.068-17.864 37.251-21.392 39.823-4.074 2.9689-113.66 24.282-249.34 75.068l-7.9387 1.8151-4.0117-2.9659 8.4889-42.231zm227.15-5.3819 9.0558-0.038c-12.386 31.61-86.45 132.92-224.94 206.88 30.359-43.326 60.916-90.296 69.828-143.47-38.633 59.68-62.397 105.85-148.81 162.63 24.053-47.371 42.424-94.294 52.457-146.63l242.41-79.371zm2210 1812.1c-267.04 262.98-516.86 449.04-1055.8 578.22-134.44 32.228-274 47.007-411.85 53.781-427.99 21.023-738.51-36.626-1089.4-161.17-133.66-47.439-266.85-102.82-388.07-177.14l0.965-2.1621 9.1744 2.3821 0.7319-3.207c-26.08-22.268-64.175-42.04-96.594-52.047 13.305 8.9192 26.279 17.559 38.082 28.437-162-76.075-297.62-199.31-458-278.4-142.2-70.122-262.7-73.776-333.97-109.43-90.673-45.353-174.17-127.2-206.6-224.31-17.266-51.687-16.777-123.49 8.0115-172.51 37.15-73.477 114.97-116.26 176.33-167.87 234.37-197.12 313.52-375.24 415.71-509.96 164.63-217 314-305.49 441.14-381.76 155.64-93.376 320.67-165.55 493.12-221.76l3.0214 2.9744c-4.325 12.46-16.978 40.331-26.402 49.076-6.7751 6.2832-28.074 11.5-37.599 15.152-244.23 99.273-488.04 197.51-688.61 377.36-77.258 69.266-86.941 82.551-129.59 145.56 241.25-225.96 381.24-330.17 843.92-510.46-11.384 26.36-27.189 50.265-42.91 74.188-41.476 63.102-90.814 119.64-151.21 165.28 33.279-49.373 55.043-96.012 65.283-154.68-13.034 16.239-21.806 39.324-31.827 57.738l-41.848 71.336 17.253-119.86c-29.248 56.816-66.774 145.7-187.74 234.1 16.491-37.813 29.131-72.834 35.813-113.5-48.72 89.733-115.53 177-194.18 242.46 19.309-53.629 34.14-86.843 43.084-172.09-31.35 87.6-125.26 245.25-210.42 327.93 23.715-54.365 36.474-120.38 37.972-179.64-46.871 102.43-91.982 197.58-162.15 287.06 9.8262-46.386 25.365-94.95 13.893-142.69-13.994 53.993-23.88 108.38-47.671 159.39-55.95 119.99-190.98 241.15-301.92 318.17-83.053 57.657-186.27 104.55-233.51 199.59-24.838 49.978-28.099 114.16-10.163 166.84 24.598 68.152 86.464 119.29 149.58 146.39 112.74 48.417 200.11 25.958 266.03 29.131 483.1 23.178 897.54 787.91 2308.2 552.1 212.79-35.571 426.15-84.255 633.91-187.1 263.78-130.55 501.79-331.75 688.15-558.43 66.312-80.691 125.47-165.6 182.69-252.89l86.92 18.532c-167.41 270.47-196.7 329.21-420.89 549.88zm-3301.9-510.1c4.6337-20.809 5.4547-40.978 8.6284-61.854 28.992-158.14 32.105-195.87 65.859-230.5-25.056 75.677-26.444 144.87-20.524 223.36 23.169-95.5 24.125-207.84 79.731-291.67 10.939-16.493 25.657-30.074 39.838-43.737-40.684 69.948-63.553 154.9-62.981 235.52l39.262-119.7c14.427-38.694 64.737-143.34 93.856-175.55 15.163-16.772 34.277-30.075 52.584-43.178-29.388 54.907-65.1 82.243-105.57 214.6 33.006-42.456 111.85-213.8 219.16-292.36-29.187 42.484-49.749 86.247-65.668 135.17 55.859-67.054 88.778-145.82 165.66-193.82-28.018 37.086-53.828 78.093-68.216 122.42 54.64-66.703 107.73-161.09 189.79-195.33-52.114 49.03-95.304 102.6-125.24 168.06 30.992-28.961 22.358-25.597 133.48-142.6 37.013-39.332 33.05-44.752 79.354-62.54-69.483 149-111.05 492.13 25.59 805.92 31.235 71.73 69.346 140.8 118.73 201.77 180.48 222.83 443.15 358.8 727.83 387.62 62.072 6.282 229.44 4.917 339.07-15.938 172.24-32.766 343.09-117.85 478.28-228.68 310.14-254.24 456.24-701.47 308.3-1097.3-6.9827-18.68-10.419-41.211-23.22-56.815 1.6633-0.4019 3.1528-0.8927 4.8625-0.8969 10.148-0.0425 27.244 9.7905 36.753 13.738 42.515 17.663 43.344 11.583 88.93 59.874 61.141 64.788 88.194 112.42 107.2 132.75-15.268-51.065-42.352-92.217-75.482-133.55 15.002 7.3961 53.109 22.746 62.05 36.502 91.545 131.66 92.7 132.4 98.608 145.45 2.552 5.6399 11.016 12.757 15.218 19.319l0.9102-2.2551c6.4614-25.822-39.682-105.19-56.232-129.03 18.218 12.012 47.586 26.423 61.746 42.417 6.4617 7.3029 10.22 19.264 14.646 27.988 29.169 57.484 48.488 115.84 68.44 176.89 12.319-52.812-6.4319-94.362-15.789-144.74 13.732 26.622 24.663 54.577 36.206 82.201 48.263 115.5 49.107 136.3 63.735 249.97 3.7195-26.914 8.7639-54.835 9.3604-81.998 1.8623-84.321-23.165-163.72-65.207-235.96 30.519 24.194 27.59 20.436 59.621 95.402 36.825 86.208 64.966 172.34 89.891 262.69 4.4014-27.456 1.9048-60.069-0.8459-87.744-7.2788-72.707-23.783-133.79-61.991-196.56l11.125 7.104c18.323 13.59 23.402 33.806 32.246 53.858 55.206 124.83 58.584 222.01 71.56 350.76 20.438-105.54 17.435-221.57-21.794-322.27 28.772 25.132 27.093 40.481 35.801 82.671 37.02 178.11 29.573 292 41.979 332.55 12.441-118.05 29.495-246.9-16.673-359.79 24.352 21.091 20.909 27.107 24.418 42.04 4.4014 18.6 9.2256 36.874 12.144 55.808 10.411 67.769 5.7979 139.33 6.856 207.9 0.2964 18.981 5.9243 71.975-4.8667 86.035-84.807 110.79-238.17 268.24-363.27 362.01-103.63 77.678-211.77 157.52-327.7 215.72-335.66 168.49-927.88 285.01-1500.4 201.46-209.69-30.599-457.59-120.78-616.27-203.99-223.52-124.88-160.71-87.861-283.12-165.55l-89.168-49.334c-22.162-11.394-53.824-24.396-72.448-40.508-9.9025-8.5635-18.827-21.422-27.481-31.369-99.42-114.3-105.75-168.86-127.47-197.91 10.427 54.577 39.597 114.52 73.95 158.19 15.349 19.506 34.206 37.356 51.065 55.72-39.512-19.844-77.141-54.792-107.24-86.915-40.87-44.629-81.373-88.028-108.68-142.77-23.283-46.694-40.993-109.94-24.121-161.31 2.5688 24.773 10.321 47.735 17.858 71.361 6.0429 18.956 13.288 42.463 26.182 57.886-4.8129-33.503-30.373-150.59-21.866-192.4 2.1877-10.747 7.6933-22.065 11.828-32.279 1.3752 47.545 2.2638 95.83 21.062 140.24 7.4818-90.879-8.0405-193.4 42.516-274.75-13.686 67.972-15.916 136.2-4.2148 204.55zm738.64-385.63c-1.443-6.7445-2.1455-8.5554 0-15.317 25.276-1.8066 51.124 2.437 76.375 3.9985 123.04 3.4612 139.15 4.666 158.15 0.9901-74.04-11.951-36.12-7.6532-172.17-18.676-13.194-0.7871-50.595 1.3497-60.95-5.272-1.3033-6.499-3.4615-10.045-0.0763-15.913 30.122-1.193 63.726 5.8645 93.933 8.5426 109.84 5.6721 68.29 2.4868 181.16 13.366-13.719-6.9855-29.813-8.7711-44.726-12.181-102.46-23.411-211.53-19.085-227.2-29.609-2.9707-1.9928-2.8777-7.1505-3.5039-10.497 1.4344-1.1255 2.5603-2.835 4.2952-3.3807 10.623-3.3326 93.098 19.838 164.36 16.848 13.529-0.571 27.049-0.588 40.003-4.9589-186.22-27.263-190.1-26.536-204.91-34.957 0.1819-7.3409 0.1354-7.8485 4.5151-13.687 95.808 14.136 187.89 48.932 284.69 59.036-25.67-10.938-53.172-15.253-79.714-23.263-22.225-6.7063-42.296-16.764-65.063-22.378-19.001-4.6881-132.77-26.042-141.01-35.419l5.0613-14.195c12.844-1.0618 166.79 49.542 271.1 63.47-2.3317-5.4706-30.592-11.132-37.515-13.357l-82.316-28.247c-139.75-36.618-139.76-34.61-153.77-43.377 1.041-5.5765 1.7902-9.6553 5.146-14.42l228.6 61.444c-24.269-14.394-52.648-24.828-79.286-34.31-23.99-8.5342-140.16-38.122-147.91-49.745l3.8848-12.461c30.708 4.7737 89.496 33.668 219.81 71.036 7.6046 2.1788 21.163 9.7019 28.632 7.5525-107.59-51.009-65.261-33.011-186.33-77.987-19.856-6.905-40.892-12.858-59.698-22.306-0.2876-7.2354 0.4106-7.7642 4.397-13.925 54.167 11.276 108.61 41.536 160.3 61.444 13.25 5.2042 94.161 33.624 101.02 31.61-72.329-35.804-108.14-54.651-218.31-98.402-12.408-4.5315-28.586-8.0094-38.475-16.658 2.7338-5.3398 1.8916-10.218 4.5238-15.723 60.8 25.965 22.204 8.761 189.54 85.371 28.653 8.3903 54.336 26.812 84.018 32.651-19.293-15.143-45.005-25.793-66.672-37.458-52.402-28.213-105.39-57.78-160.26-81.068-13.127-7.1844-32.699-10.298-42.479-21.236l7.9558-12.346c11.824-0.0551 27.769 11.077 38.568 16.539 149.35 78.13 86.899 47.14 277.13 136.57-12.45-13.814-29.859-34.36-46.148-43.77-18.535-15.93-37.519-33.595-56.803-48.387-84.006-64.426-183.83-106.75-191.5-122.23l8.9756-8.0012c14.76 1.1932 30.266 15.862 42.868 24.409 53.015 34.471 120.03 80.276 178.81 102.96-60.489-53.498-129.59-94.485-195.23-140.89l0.3088-3.2157 7.6298-1.7812c17.524 6.3593 32.839 19.653 48.251 29.981l81.749 53.519c22.834 19.086 53.371 35.482 79.684 49.732l-71.364-59.861c-34.679-29.681-77.001-53.371-109.61-84.825 19.486-6.3895 16.991-1.3123 39.884 15.084 32.435 23.227 135.35 105.82 175.69 122.82-4.6707-15.158-8.6766-15.958-147.62-126.08-9.1619-7.0616-29.368-18.685-34.383-28.073 22.236-2.6384 23.375 3.0377 144.29 96.63 20.638 14.745 44.48 35.325 67.662 45.091-27.615-34.999-43.922-46.458-135.38-124.25-9.6486-7.6964-31.518-20.436-37.185-30.701 3.1992 0 9.2506-0.8503 12.116 0 19.53 5.8052 101.51 76.033 118.02 92.97l0.5502 0.9097 76.315 57.179c-47.182-70.033-144.92-137.97-167.79-161.64l9.8644-3.7317c29.131 9.4739 109.79 108.03 180.26 146.8-9.0958-15.724-25.312-30.409-116.29-119.71-11.701-10.777-26.994-21.473-36.681-33.942l6.5254-2.2213c14.262-3.6329 23.846 10.806 40.519 25.547 121.33 107.48 116.57 104.34 131.21 113.19-10.47-25.718-21.964-34.644-134.46-144.45l0.3428-4.2563 11.9-4.6375c24.17 11.27 80.596 91.801 138.44 126.86-28.662-50.993-77.099-85.798-110.78-132.52 3.8594-3.9392 6.7961-3.7277 12.014-4.9082 92.65 95.613 100.99 105.49 118.21 116.74-17.722-43.492-60.409-85.494-92.248-119.77l0.9352-3.9686 8.8022-1.8068c16.927 13.425 29.373 30.785 43.68 46.77l60.078 63.06c-17.465-42.751-49.787-76.849-79.138-111.89l0.6431-4.0702 6.4749-1.6543c17.631 4.6681 40.815 55.662 105.08 109.5-28.226-58.335-69.359-95.464-80.01-115.78l9.3182-4.0068c10.929 2.4033-5.0415-12.109 87.788 96.554-12.344-36.066-39.601-69.555-61.34-100.13 2.1118-1.3539 4.2742-2.8899 6.7327-3.5753 2.6196-0.7278 9.149-2.0266 11.777-1.5697 18.23 3.1606 50.819 64.16 71.25 77.099-5.4038-33.544-32.25-54.112-45.064-82.887l8.2012-1.3116c15.414 8.6337 38.75 49.003 74.403 78.292-11.151-30.578-30.951-55.918-49.436-82.269l4.1216-3.4144c16.212 0.5433 11.488-3.3995 23.33 12.706 27.904 37.289 28.254 41.438 55.584 62.785-10.148-30.168-34.535-57.852-40.388-88.557 26.817 19.636 37.358 51.598 57.286 77.103-4.2971-49.883-13.691-49.719-19.97-73.85 6.5212-3.2748 9.6357-5.8896 17.007-5.2888 13.554 25.382 26.06 51.484 43.613 74.395-4.3672-29.516-20.918-56.663-22.564-86.488 11.48 7.6793 12.75 28.244 38.67 66.944-4.0117-22.531-15.899-51.374-11.705-73.498 18.497 14.555 24.197 43.081 38.776 61.99-2.9158-18.228-10.304-38.499-10.431-56.57l8.0022-3.0422c11.46 10.785 17.892 32.067 25.911 46.153-0.1692-15.08-2.9917-29.626-5.5901-44.435l3.4785-4.9502 13.228 0.1945c4.3335 10.823 4.9175 26.99 11.9 35.85l9.2593-0.2961c2.1792-12.465-6.7837-27.485-1.312-38.016l17.181-0.4442c7.5957 7.6877 7.05 33.083 10.364 44.684 2.6658 9.3296 7.397 18.202 11.836 26.8 1.7336-56.95-5.374-58.795-2.2471-73.08 3.2925-1.0238 6.1064-1.5951 9.5764-1.5992 4.4011-0.0084 10.533-0.8503 12.92 4.0068 2.1838 4.4294-1.2241 42.277 11.769 55.3l1.7732-1.9208c7.7908-11.432 2.6025-40.58 1.5105-54.463 5.239-4.76 13.5-3.2621 20.52-3.4312 7.8499 8.3689 4.3589 37.111 8.5015 49.719l8.6921 1.1382c10.766-11.365-2.3401-38.939 7.6172-51.395l12.217 0.9436c7.5242 12.359-0.6812 33.874 4.7395 48.433l5.8401 2.2975c1.6882-1.354 4.1555-2.0985 5.0654-4.0619 1.084-2.3405-2.3342-30.781 1.5486-46.682l9.2551-1.0071c1.5908 0.9097 3.9692 1.0789 4.7776 2.7205 1.5193 3.0715-3.2534 33.704 3.5632 47.612l2.9707-0.9224c5.5859-19.408 5.3657-39.662 13.008-58.072 8.7258 22.683 11.371 46.127 17.367 69.559 3.449-15.558-1.1045-46.449 6.3604-58.74 8.0996-0.3174 11.117-1.7391 17.765 3.2113l0.5459 59.802c15.169-34.811 6.8052-51.617 16.952-62.421l13.228 1.2738c9.9097 10.618-3.1768 48.955 7.9304 59.066 7.8582-1.9506 3.762-47.16 10.579-57.09l11.904 0.7109c7.8669 6.9474 2.4036 47.248 10.52 62.692 2.937-12.135 3.2627-53.371 9.3142-60.712l15.869 0.3597c11.532 7.4974-2.4587 44.786 7.5537 57.153 11.811-11.005 13.22-37.157 15.59-52.901 7.3972-0.6094 8.4214-0.8038 14.904 2.6444-3.2034 22.348-3.3091 42.738-2.0271 65.277 7.9009-20.186 12.708-40.838 17.139-62.015 7.0627-2.7926 10.076-0.3132 17.134 2.0267 2.9666 12.058-6.3896 37.699-7.4436 51.53-0.8081 10.574 1.9722 21.227 4.2107 31.492 14.474-81.726 21.936-66.636 17.126-78.436l7.0627 0.3047c1.6335 1.0154 3.8806 1.4176 4.9004 3.0464 2.0271 3.2284-10.55 40.301-10.27 47.283 0.3513 8.6991 4.7861 19.59 7.1897 28.052 4.4856-17.458 13.144-67.884 25.954-78.948 2.0481 4.6542 0.7192 3.0548 4.8621 6.3973 0.9988 0.8082 2.5095 1.1763 3.0684 2.3314 0.1392 0.2876-9.2041 26.525-10.203 30.358-2.2385 8.6104-2.1072 15.994-0.3765 24.638 14.718-13.874 18.51-35.968 31.738-51.323 5.8865 1.4767 8.1292 2.5851 12.23 7.0828-12.53 24.109-21.696 46.72-27.536 73.359 19.826-12.922 37.688-50.21 52.334-69.952l6.6143 0.1184c4.7185 8.0814-9.4199 29.288-12.09 39.954l2.8352-0.6263v4.7305l-5.2898-2.0099-0.0464 7.3409c13.381-5.8643 17.528-18.215 26.03-29.11 5.6072-7.1886 12.23-13.835 18.531-20.428-1.7434 23.474-16.808 49.902-25.619 72.043 15.823-18.634 25.687-43.449 43.257-60.039l2.2134 3.135 7.0415-0.6556c2.1499 10.903-16.546 40.212-22.069 51.462l41.907-47.176 13.5 4.3029c-13.495 18.49-23.66 36.553-31.967 57.911l52.851-55.783c6.6946 1.2269 9.5383 0.9563 14.582 5.7035l-50.396 69.195c27.007-15.486 50.764-45.315 71.517-68.133 7.9683 1.0833 8.3027 1.426 14.164 6.9773l-57.471 76.502c31.235-21.143 53.693-48.983 80.336-75.203l9.9531 1.722 1.4854 3.5414-66.519 80.361c6.29-2.1389 62.682-45.328 92.108-77.243 5.4463 1.0577 11.718 0.8884 15.463 5.0645-27.502 29.723-52.601 54.348-75 88.857 34.785-21.016 67.899-55.63 98.761-82.439 8.2859-1.6838 14.515 0.0128 22.636 1.955-1.6294 2.9701-0.8042 2.2551-3.1951 4.0618-34.633 26.195-64.255 58.96-94.792 89.771 10.025-2.6781 21.112-13.158 29.762-19.357 93.418-67.445 79.669-60.859 96.29-70.426 7.0708 1.6204 12.369 2.7628 18.188 7.2181-44.099 29.093-82.528 63.839-122.56 98.089 50.747-21.494 99.967-58.457 142.89-92.902l26.571 11.098c-16.687 12.571-88.762 44.646-172.41 129.18 29.288-15.329 57.158-34.048 85.012-51.814 32.89-20.986 71.681-43.49 96.404-73.384l29.851 10.908c-7.52 15.784-30.93 15.467-137.67 87.757-29.847 20.216-58.597 39.823-83.975 65.73 72.826-30.28 126.27-70.558 241.52-143.08l23.008 11.724c-60.23 26.613-110.24 61.133-166.66 96.054-31.116 19.26-71.555 38.046-94.935 66.136l278.75-152.19c8.4084 3.1055 8.6326 4.2648 13.482 11.339-23.432 23.894-159.71 67.507-229.16 130.9 49.338-12.85 94.182-37.17 139.44-60.132 35.936-18.232 71.932-35.427 106.2-56.73l12.763 25.289c-47.091 17.064-91.296 39.214-136.93 59.65-31.713 14.2-65.656 25.826-94.936 44.744 30.075-7.1675 59.219-19.12 88.33-29.525 50.9-18.194 103.41-37.077 151.07-62.654 3.0549 5.0944 5.7085 9.4945 7.198 15.329-10.257 11.196-36.478 17.284-50.688 23.728-37.912 17.195-81.753 35.186-116.09 58.503 78.914-16.261 142.14-55.769 175.45-65.793 3.927 6.8033 4.8496 12.892 6.0344 20.592-4.5913 5.6106-21.798 8.932-29.055 12.088-115.69 52.148-131.38 58.242-149.21 72.17 25.983-6.4818 177.5-53.269 189.53-48.548l2.2766 9.2578c-10.787 8.7373-31.37 12.223-44.7 16.603-139.3 50.756-136.9 49.224-145.94 55.884 117.16-29.261 151.28-35.785 194.86-54.128 5.8992 4.3643 8.1006 13.999 6.2373 21.096-12.788 7.9292-28.129 12.516-42.114 18.046l-54.898 23.428c28.575 4.936 97.932-22.185 99.315-21.57 2.1577 0.9434 3.2412 3.4187 4.8582 5.1323l2.0225 9.6807c-9.3303 7.9148-8.9658 6.1371-133.23 42.836-5.3447 1.4725-28.162 6.5244-30.283 9.8162 85.898-4.8451 80.714-6.9946 158.43-30.701 6.001-1.8278 4.8752-2.2002 9.7117 1.7433 1.6379 5.3776 3.4324 10.282 3.1189 15.985-13.186 7.6709-36.325 9.6089-51.559 13.336l-92.684 25.348c84.992-2.1184 120.49-21.137 146.2-17.826 3.3218 5.5048 2.6196 9.6344 2.1201 15.731-11.079 7.1462-37.05 7.0828-50.718 8.8724-119.83 18.135-135.13 19.313-152.36 29.681 16.987 1.0409 39.724 3.9137 56.262-0.7108l148.67-17.466c4.4006 5.8645 4.2866 8.5385 5.2644 15.659-1.312 1.1593-2.2854 2.8983-3.9399 3.4779-20.064 6.9991-101.49 1.9119-181.43 23.347 41.09 3.0378 84.28 2.3948 125.41-0.1438 16.034-0.9901 47.769-10.421 61.585-5.5216 1.7732 5.8389 2.3613 8.5637 1.0454 14.741-11.879 6.5667-45.051 1.9845-59.592 2.6953-44.505 2.1705-88.715 14.851-133.74 17.745-26.123 1.6799-56.494-2.5131-81.728 2.2343 25.859 10.85 110.73 0.037 138.86-1.5698l105.98-4.4128c4.9805-0.3048 26.617-3.2198 28.911-1.8575 1.6719 0.9901 2.1919 3.2072 3.2878 4.8107 0.3386 8.2676 2.4927 14.572-3.2878 20.944-18.213-2.4244-35.483-6.8586-53.96-8.1152-69.371-4.7177-140.27 4.1591-209.54 8.8091-23.778 1.5951-47.599-0.1058-71.297 2.6909 35.041 27.712 34.958 22.955 83.844 27.836 137.38 13.696 249.15 5.1545 250.62 5.801 1.9385 0.8463 3.1741 2.7966 4.7612 4.1929l-0.4575 17.424c-6.7708 3.4314-16.347 0.4822-23.622-0.4995-84.604-11.072-93.85-14.656-216.61-5.9148 46.587 5.6111 132.42 12.554 194.36 17.749 41.674-1.3876 34.303-4.3534 43.227-0.9181 1.4895 7.3621 1.6035 14.475 1.7476 21.964-121.9-19.728-5.5774-4.6858-133.25-20.867-7.9597 1.4636-19.995-1.1934-28.51-1.4979-23.211-0.8337-46.354-0.4148-69.447-3.3044l-22.157 0.9563c13.001 5.8047 6.4202 3.0709 152.45 28.695l55.424 4.76-0.1995 1.8406c13.88 0.3892 28.306-0.3132 41.594 4.0662l1.5913 9.1938-0.5669 4.3496c-8.4465 3.897-35.297-3.9983-45.394-5.9065l-3.9436-1.2186c-70.02-11.242-41.788-7.8959-124.68-14.085 38.861 15.693 82.795 24.443 124.43 29.258 17.896 2.0862 34.577 2.0692 49.215 13.671l-3.783 13.734c-48.872-11.478-16.889-5.7446-158.25-26.245 37.354 13.45 74.852 25.894 114.08 32.715 11.346 1.5654 34.451 1.5442 42.784 9.418l-6.3521 14.018c-12.674 1.9971-38.551-10.328-51.577-13.628-35.555-9.0081-71.712-9.5073-107.3-16.637 11.426 6.8796 24.586 8.7285 37.214 12.473 21.857 6.4734 42.606 14.534 65.097 19.12 15.958 3.2542 40.647 3.8633 54.323 12.046l-1.0618 18.828c-73.577-19.979-41.196-16.067-135.7-34.56 25.014 19.069 70.497 29.897 100.25 38.16 9.8391 2.217 22.708 3.5498 31.138 9.1265l-5.6284 16.1c-38.483-12.247-8.6221-3.7908-153.17-42.315 36.182 22.01 73.565 34.792 113.49 48.146 9.6316 2.2212 27.803 4.9165 34.074 12.757l1.011 1.7263c-2.3862 5.5342-5.2043 10.781-6.0042 16.785-20.99-12.616-57.039-24.235-143.25-55.554-19.263-6.2493-39.749-14.25-59.799-16.835 16.216 10.975 33.41 18.13 50.925 26.681 104.92 51.21 119.12 41.837 145.08 58.11-3.2544 5.9277-6.0637 12.693-11.421 16.992-43.413-21.604-84.572-39.658-132.34-49.931-8.5183-1.8318-20.427-5.7795-28.802-5.0137 33.846 19.535 75.135 33.066 111.75 46.995 12.306 4.6838 39.766 10.298 47.51 20.102l-6.6948 14.546-4.6462 0.9944c-28.04-25.966-66.545-38.782-103.03-48.92 29.042 22.599 77.606 41.818 81.233 47.227 7.7742 4.0447 17.422 6.9431 21.798 14.589l-3.9019 10.248c-61.381-37.884-135.21-78.903-205.03-95.826 12.365 10.814 30.016 16.971 44.552 24.688l95.617 50.756c19.99 9.8333 43.892 18.131 62.6 29.766l-10.524 18.68c-48.942-28.638-77.694-47.931-156.65-74.962 24.84 17.881 48.724 32.935 76.024 46.766 7.1643 3.6301 15.992 9.5325 23.977 10.611 16.275 8.437 37.599 17.521 50.502 30.578-19.408 35.86 9.0647 4.4846-166.12-64.719-16.868-6.6597-32.627-14.483-50.358-18.824l142.27 81.072c14.257 6.8459 49.88 19.844 57.121 32.495l-7.6848 12.059c-9.1238 1.4302-48.902-28.573-59.782-35.638l-122.3-62.87c55.919 46.621 47.269 39.71 138.31 92.767 9.8894 5.7671 29.081 13.594 33.951 24.104l-7.6724 9.833c-33.558-12.376-65.478-42.252-97.111-60.09-25.505-14.382-54.632-24.066-81.114-37.035l-2.6406 1.574c60.412 40.416 61.039 40.403 62.745 43.652l110.52 65.578-15.26 19.4c-115.36-85.025-109.18-83.834-230.23-152.87-21.274-12.137-26.435-18.952-53.011-30.049-2.1248 7.1418-28.643-1.6526 206.68 147.12 68.302 43.369 66.867 40.978 69.942 47.109l-5.9241 6.3337c-30.219-13.713-59.566-40.25-86.963-59.146-66.668-45.975-140.02-94.937-214.42-126.49 26.919 31.365 63.853 50.202 98.529 71.793l193.15 127.37c-1.0916 6.2876-3.2883 7.7131-7.4863 12.372-8.3772-3.6353-3.9861-1.5549-76.84-56.557-38.09-26.74-78.863-50.557-116.03-78.537l-4.6335-1.0959c16.533 19.404 39.842 36.121 59.465 52.546 26.36 22.061 52.305 45.814 80.175 65.866l0.1523 0.5627c10.27 6.6511 44.976 24.591 48.458 33.853l-8.7305 11.407-4.1685 0.3979c-46.06-41.35-100.52-87.544-154.55-117.79-10.322-5.7795-19.606-14.741-28.649-22.357 8.1128 21.525 98.319 89.596 129.22 118.03l46.033 32.862c-3.2627 5.6572-6.1233 10.083-10.893 14.576-14.942-9.1221-28.763-26.232-41.366-38.596l-105.58-73.109c24.616 29.948 57.738 57.45 86.844 83.149 10.046 8.8684 46.177 31.226 49.228 42.252-4.0032 4.9209-7.9851 12.325-14.252 13.206-30.975-30.068-115.75-104-149.93-120.21 44.023 47.109 88.326 95.614 142.71 131.02l-13.948 14.356c-9.9434-2.4321-7.4592-3.5195-16.334-3.1606l3.123-2.9871 0.8293-3.9646c-28.061-34.394-64.001-64.351-96.933-94.053 17.096 32.833 41.844 62.332 69.257 87.156 9.208 8.3438 22.852 15.168 29.199 25.75-4.5239 5.3145-8.3242 9.2109-14.253 12.93-42.626-44.088-82.943-92.564-131.4-130.55 32.881 54.975 73.294 100.6 121.95 141.92l-16.187 16.315c-34.116-41.058-66.29-76.033-109.8-107.13 28.624 42.421 61.298 78.356 96.294 115.45-3.9185 4.5566-7.249 8.4238-12.433 11.644-29.666-32.734-72.788-100.47-104.66-116.33 26.83 47.701 57.087 86.958 95.075 126.14l-18.18 14.115-3.584-1.1846c-11.419-35.143-35.578-59.639-135.04-175.16-21.053-25.277-40.295-55.385-64.78-77.209 23.41 46.153 61.906 89.86 92.942 131.67 32.386 43.623 60.916 90.444 100.68 128.18l-24.98 19.319c-31.535-70.909-80.645-136.44-127.42-198.02-18.078-23.8-38.424-54.04-62.486-71.624 10.778 30.833 17.623 37.738 182.37 272.32-6.3394 5.2805-16.8 16.679-24.591 18.22-6.9968-28.061-19.464-46.817-34.95-73.426-31.425-53.997-68.093-110.76-109.65-157.44 64.157 147.92 138.48 221.34 138.93 235.42l-20.609 14.521c-28.585-56.244-54.238-129.34-101.3-172.5 18.311 44.291 37.422 85.252 61.073 126.89 9.5554 16.822 17.71 35.406 32.898 47.913-7.3423 6.9558-16.271 11.568-24.963 16.62-12.352-23.123-21.472-47.574-32.39-71.366-49.593-98.62-63.059-128.21-84.284-152.6 21.904 82.654 65.732 153.69 106.39 227.77l-22.445 12.363c-13.4-30.443-81.497-201.39-119.95-238.02 9.7883 26.8 23.194 51.505 34.493 77.615 23.731 54.843 46.211 113.35 77.534 164.3l-22.403 13.531c-16.193-50.252-63.524-176.38-99.667-220.38 31.686 107.02 91.304 219.1 91.339 220.13 0.0632 1.8108-1.1003 3.4524-1.6504 5.1787l-15.738 6.8923c-7.7864-6.1306-12.962-26.279-16.817-35.935-39.535-104.26-50.706-140.58-73.425-167.01 21.257 86.275 41.875 126.19 77.772 207.83l-20.613 8.4749c-6.8977-24.528-16.834-47.98-25.175-72.03-18.696-53.917-36.22-102.59-64.183-152.54 15.39 63.401 60.574 188.49 85.067 225.09l-24.654 11.314c-59.986-183.12-63.969-202.9-78.419-212.16-1.7222 9.4226-0.5034 16.954 1.2993 26.279l69.029 185.65c-6.0474 6.7319-14.003 8.5129-22.331 11.322-51.678-175.34-58.26-205.31-76.815-237.51 4.0881 24.938 12.107 47.773 18.214 72.098 13.669 54.445 3.0562 39.195 38.687 130.93 4.2659 10.984 10.897 23.28 11.032 35.059-6.2632 4.4045-11.049 5.4155-18.552 6.6133-11.911-15.019-16.567-110.72-52-147.09 12.021 68.146 36.686 138.12 41.759 148.41-6.3647 4.0535-13.364 5.0139-20.626 6.5242-5.3447-4.5356-5.8228-13.632-7.2744-20.19-17.844-86.806-3.9131-35.1-65.419-237.99 3.8337 43.111 13.639 83.606 22.796 125.74 9.5471 43.893 18.865 91.734 36.668 133.08-5.9373 5.0647-13.571 5.1873-21.159 6.6174-4.0837-7.9712-4.5239-18.227-6.1108-27.011-17.386-96.304 3.6741-20.409-37.447-163.62l-19.652-85.71c-6.3647-23.089-20.799-51.471-21.425-74.763l-2.9246-0.7744c0.0425 22.357 5.7046 43.842 9.2126 65.781 7.478 46.784-3.6138 25.31 44.962 208.86 6.1069 23.068 20.668 55.046 21.227 78.004-9.1492 2.7122-17.693 4.2651-27.185 5.2041-10.846-122.17-34.582-245.64-67.606-363.58 3.9651 68.006 9.0811 138.27 23.338 204.96 30.939 143.34 31.506 131.29 34.789 158.7-6.9653 3.6812-10.668 3.9856-18.467 3.3174-4.7141-7.2598-2.3083 0.9404-16.817-143.51-7.7695-59.078-22.94-116.5-29.618-175.95-10.622 32.602 10.69 140.33 17.672 173.8-4.7312-8.8638-9.001-17.956-15.717-25.505 2.0227 60.03 23.596 113.35 30.342 171.79-5.6833 3.6978-9.9404 3.5159-16.428 3.5583-16.354-39.127-5.3564-83.756-47.781-238.03-3.7268 33.372 2.6118 48.505 22.581 188.55 2.3066 14.14 9.8813 36.155 6.6824 49.626-6.1575 2.1919-9.5601 1.8069-15.869 1.0286-16.618-61.114-7.533-134.48-37.528-192.37 1.752 27.316 26.195 184.1 21.607 194.27l-11.849 0.8713c-12.07-19.096 1.3906-68.181-23.601-162.77 2.2319 104.86 0.3994 67.756 8.603 160.58-5.3997 3.1099-5.2683 2.6912-11.421 1.3203-4.8245-15.08-2.8608-34.556-3.0132-50.414-5.7534-26.057-1.2913-120.09-19.348-177.83 8.0278 245.66 8.48 223.98 5.1414 229.48l-11.904 0.3638c-5.4346-5.2776-3.9048-0.9353-4.1514-13.488-1.3357-62.358-0.9521-118.27-15.742-172.06-2.2686 18.097-3.3052 36.096-3.0427 54.34 0.2751 19.383 9.1406 119.68 1.646 130.25l-7.8032 0.5037c-1.604-1.2654-3.7959-2.0188-4.8159-3.7913-6.7703-11.725 5.802-146.73-18.446-215.42-1.7107 127.92-1.9324 85.281 0.6855 169.89 0.8677 13.154 5.988 36.079 1.6082 48.176-5.7805 0.5625-9.2551-0.0635-14.739-1.5574-6.936-23.78 7.3267-131.45-9.7964-193.09-17.631 61.081 0.8208 179.61-7.3931 192.6-6.1191 0.0635-9.2844 0.4697-14.544-3.1057-2.9539-78.538 9.3647-158.37 2.3779-236.39-6.4746 42.319-14.193 85.874-16.351 128.7-1.7183 34.128 4.7778 74.366-1.8999 107.35-6.5891 1.5784-9.6401 0.1736-15.518-2.4326-7.1011-34.044 10.517-74.311 2.1665-192.46-24.585 70.345-13.04 170.12-18.387 189.79-5.9458 1.2693-7.4902 1.8364-13.195 0.0256-5.0513-9.7866-2.9124 1.6101 14.862-247.75-11.629 27.57-14.951 65.92-20.067 95.597-12.119 74.126-8.8218 132.87-13.118 144.22-0.8506 2.2551-3.0552 3.7273-4.5872 5.5935l-11.502-5.1072c-4.1768-20.258 5.4038-49.123 8.5098-69.69 4.2656-28.276 5.5227-59.159 12.822-86.636l-2.8438-21.38c-15.146 16.798-25.789 99.029-28.611 125.29-1.532 14.271-0.9817 38.981-9.7119 50.523l-9.2549-2.323c-5.6152-12.481 34.159-211.12 38.894-239.52l14.003-96.325c-16.275 32.342-23.232 73.718-30.668 109.04-36.314 172.48-27.38 192.25-43.16 222.6-4.7478-2.5642-8.5183-3.4146-11.599-7.9375 28.43-130.14 10.996-43.994 73.489-368.41-24.43 58.736-38.42 123.03-54.179 184.48-34.566 187.81-29.346 178.23-42.326 182.65l-9.416-6.6555c4.1204-33.526 22.854-94.968 45.043-173.86l43.524-182.12c-13.969 12.934-18.188 39.21-24.248 57.03-82.879 243.63-64.841 270.54-80.027 294.8l-14.545-2.8264c-0.9734-1.3538-2.6152-2.4243-2.9202-4.0659-0.5183-2.8108 37.755-121.27 45.919-199.69-10.516 18.824-18.89 39.84-25.331 60.42-7.2024 23.021-26.834 126.74-36.093 137.1l-12.903-5.2888c6.4307-41.319 51.679-166.36 59.96-263.89l-55.703 178.62c-17.753 78.272-15.614 74.662-20.253 79.98-4.6558-3.5481-8.3848-4.1323-14.57-5.293 17.101-60.771 42.563-122.5 52.343-184.51-46.423 67.23-55.502 154.02-66.744 176.95l-13.631-6.7231c-3.2117-15.228 19.2-58.11 25.454-74.192 15.294-39.307 23.44-78.246 32.589-119.16 1.8069-8.0725 8.4336-25.949 5.4333-32.778-66.406 178.6-52.25 139.46-69.65 190.56-3.0046 10.176-4.27 21.113-11.608 29.123l-11.316-4.375c-0.8041-1.3284-2.3021-2.437-2.4208-3.9854-0.9916-12.72 51.722-111.03 66.244-177.92-31.137 36.819-52.461 92.187-68.258 137.68-3.6478 10.51-4.8792 26.462-10.706 35.436l-4.693-4.0662-4.9174 0.9268-5.4166-3.9688c-1.6547-12.664 14.401-38.456 19.915-50.468 28.887-69.025 50.974-113.18 63.417-177.37-27.244 57.09-58.081 115.02-80.628 174.05-3.8171 9.9937-11.938 41.215-20.143 45.421l-10.859-8.4116c24.883-54.179 62.139-106.33 72.529-165.88-15.992 9.2236-55.75 93.579-64.42 113.44-4.5493 10.421-13.601 39.59-22.373 45.247-4.8115-3.6558-9.4667-6.9941-13.292-11.742 11.434-23.491 28.162-43.741 40.511-66.644 23.461-43.508 41.484-89.788 60.434-135.36-50.197 60.62-99.115 179.6-114.4 197.26-5.4082-3.0208-10.266-6.6848-15.294-10.29 29.952-48.946 69.405-100.17 85.147-155.13-42.819 42.458-89.238 133.86-99.967 145.6-5.4249-2.5049-9.661-4.9082-14.422-8.5088 10.9-29.303 65.26-76.252 148.12-237.5-21.221 23.764-18.553 23.147-116.11 157.48-17.866 27.027-33.712 63.035-48.001 68.565l-12.441-10.341c2.6162-9.3047 2.1598-6.3086 82.21-113.46 36.38-50.849 68.411-103.53 107.62-152.4 3.5166-4.3835 37.112-42.412 41.335-42.459 3.5-0.0381 35.873 24.244 41.099 27.591 428.37 274.64 1034.8-27.404 968.74-566.36-16.064-131.11-82.418-228.64-185.22-307.85-40.705-31.369-86.861-54.255-134.24-73.778-316.06-130.24-662.27-34.685-832.5 187.21 1.7603 3.7233 9.8938 1.2693 15.958 4.2946l7.9346-4.942 8.6412 2.3778c4.1978-2.839 7.4054-2.9321 12.31-3.4653l0.766 5.8475c4.5746-2.2552 6.1445-3.9011 11.341-3.4738l1.5825 5.9744 7.6765-3.3723 5.9457 3.3723-7.2661 4.413 1.0963 2.509 6.8341 2.5979 3.9568-0.2158 1.553 5.9786 9.0391 4.2013 6.0853-3.9941 3.2921 3.275c-3.6562 3.4568-7.05 6.2788-9.0135 11.047l7.5707 0.5162c6.4205 3.4862 8.1915 6.1053 11.904 12.651 7.1919-3.9105 5.5388-2.9713 7.9304-4.4343l3.1567 5.0985-15.31 15.871 1.5742 2.3566c4.3713-5.2804 7.4099-9.431 14.041-11.982 5.5396 6.0842 4.7905 8.2548 5.5479 16.239-3.0977-3.7233-1.0664-2.4836-6.3604-3.2412 1.157 8.3882 3.4155 11.119 9.6104 17.788-1.2991 7.8232-2.467 15.092-5.4038 22.484l-6.8555 2.1664 2.6489 5.6104c-1.8958 5.7628-3.8296 10.768-6.864 16.028l-4.583 0.5201-3.6814 0.0298c-4.5153 9.0333-6.9951 15.397-16.61 19.62-0.8632-3.351-2.027-6.1307-3.5504-9.2322l-4.3882 1.9041 4.8793 8.3224c-3.1274 5.4708-4.4054 5.6147-10.169 8.4283l-8.4932-8.4283-2.0862 14.052-13.22-5.2845c-2.9426 7.4603-7.4253 8.9817-15.251 12.393l10.156 7.6162-2.8438 7.0868 2.6489 1.8575c11.324-0.9095 17.425-6.3462 28.137-14.301 1.5973 28.992-10.035 115.43 40.748 230.34 101.16 228.94 372.24 351.5 612.63 242.92 181.75-82.105 287.54-268.69 247.66-466.62-4.2986-21.321-5.926-33.972-14.739-52.546 3.6306-6.0547 5.9373-5.2974 12.585-6.9856l9.259 7.4976 1.9045-12.414c12.209-3.5245 20.812-11.183 32.475-16.302 4.4519 4.0704 6.3772 6.2366 8.5354 12.08-5.0486 3.6644-9.022 6.0591-11.329 12.156 4.7397 6.2493 10.313 1.1846 17.82 5.2889l1.6377 10.582-10.723 10.582 6.0852 6.609c6.5127 1.2524 14.159-6.7444 20.304-10.066 5.8481-3.1606 6.2544-3.9816 12.636-2.158l2.8774 5.9196c-6.9741 6.8501-36.194 27.269-45.17 27.671l-3.9946-0.0167c-5.6199 6.6047-11.959 10.298-19.339 14.733-4.7859-0.4613-7.2913-0.618-11.684 1.4597l1.0071 3.2029c27.005 3.0917 31.313-13.47 46.837-14.314 12.979-0.6982 22.97-11.53 34.756-11.458 0.9902 3.021 4.6763 10.586 2.9583 13.167-5.5862 8.3735-36.876 21.921-46.99 23.783l-14.439 2.5895c8.803 0.0706 10.157 0.8597 16.153 3.3766l3.9653-5.1748c8.3154-1.0999 9.7793-0.6558 17.194 2.3145 8.0466-6.903 20.409-14.476 30.562-11.386l2.1582 8.9065c2.8694 14.627-27.312 9.3422-35.856 21.515 7.5789 3.2622 25.657-6.1562 36.194-5.5682l2.7971 7.9927 14.392-7.6583c6.4534 2.3188 6.8765 4.1931 10.681 9.6893 2.9749-6.5964 4.1726-12.964 11.802-15.384l10.169-1.4512c3.7195 5.6738 2.7673 8.0135 2.501 14.656-6.606 4.2522-14.041 4.0448-21.65 4.6584-41.133 9.7255-11.526 4.4998-53.236 22.141 15.37-1.9591 65.88-13.277 78.06-6.5923l-0.3684 11.902c-7.4268 4.9674-19.284 4.3961-27.98 6.3297-11.57 2.5768-23.304 6.7953-34.493 10.709 17.773 8.1619 45.377-3.774 62.279 4.2142l1.1255 9.1646c-10.19 8.9995-44.006 10.726-58.47 13.544 21.616 3.3213 45.411 2.4329 65.411 11.894-6.3647 3.9857-11.447 7.269-19.17 7.2775-18.709 0.0167-35.674 5.4073-53.888 8.8472 14.376 0.8676 49.888 0.0551 61.615 7.3368 0.5203 6.1858 0.584 6.6132-2.5476 11.936-15.573-0.931-30.253-1.1089-45.783 0.4695 18.319 7.7388 36.757 11.386 53.87 21.917-23.178 5.7456-50.51 3.427-74.399 3.7572 15.717 4.3029 51.192 9.6128 61.597 20.148l-3.3176 7.6667c-20.41-3.0125-39.542-1.2058-59.934 0.8293l55.626 16.632c0.2751 6.6431-1.646 8.3774-5.0144 13.967l-63.794-5.2466c8.8445 3.0254 22.649 5.9573 29.952 11.517 9.3398 7.1084 19.987 5.7205 29.445 12.646-0.4697 5.8562-2.6194 8.0435-6.1191 12.49l-65.474-10.832c9.9446 4.4763 26.559 9.6721 34.46 16.7 7.7439 6.8882 18.662 6.554 25.314 13.56l-4.5366 8.5005c-19.229 4.7515-52.673-8.678-71.627-14.195l59.384 35.287c-0.8804 5.4666-4.3462 8.4873-7.9387 12.393l-59.27-18.211 48.665 33.096c-0.3215 6.376-2.3909 7.2263-6.5845 11.843l-55.043-19.396c9.7461 10.502 41.891 26.99 43.761 39.29l-8.2859 7.9373c-6.7285-3.5393 1.7822 0.4568-52.084-24.075 10.355 13.586 36.876 27.333 42.626 41.266l-7.7822 9.0249-56.321-30.586c13.766 16.425 28.086 29.338 43.376 44.045l-1.2781 5.293-5.8354 1.718-55.792-31.657c10.059 13.785 38.581 35.313 41.789 49.804l-4.5068 2.2302-53.27-25.844c11.299 12.964 32.513 28.958 39.8 43.424l-7.6895 7.21-55.673-34.446c11.113 14.144 31.988 31.518 39.804 46.881l-13.228 8.3225-50.739-40.373c10.152 18.524 28.226 33.129 36.626 52.081-4.2993 3.5879-6.7368 5.7456-12.335 7.0532l-44.006-37.492c10.757 15.24 21.476 32.152 29.576 48.954l-6.7285 5.1282c-1.7605 0.2156-3.6055 1.2185-5.2896 0.6558-3.0427-1.0239-14.219-15.676-17.304-18.76-7.1941-7.1846-15.645-13.21-23.893-19.129 5.7424 16.988 18.324 33.375 26.872 49.3l-6.8342 5.4705c-8.2942-1.1929-30.689-30.121-38.818-37.825 6.4749 16.014 16.157 31.661 20.803 48.188l-8.4336 6.3298c-12.294-5.6399-28.04-33.95-37.143-45.577l16.948 49.863c-3.199 5.2593-3.2751 5.7922-8.895 8.1318l-34.366-54.225c1.8152 21.854 7.1179 39.726 16.022 59.772-3.6223 4.6035-3.8638 5.1746-9.4031 6.8672-13.246-16.76-23.381-38.888-35.551-57.056 3.4067 14.741 17.613 49.969 15.357 63.805l-6.28 2.5554c-9.386-5.0605-28.746-46.487-35.851-57.078 4.5872 20.576 13.381 43.365 14.439 64.258l-3.7114 3.0508c-12.395-7.6753-24.43-34.42-32.762-47.392 2.0481 12.033 11.112 41.587 7.634 52.152l-9.259 3.0886c-7.9346-6.7061-10.258-19.962-13.893-29.465-3.9143-10.231-8.8401-20.14-13.597-30.003l4.8918 61.795-5.1709 2.6782-5.4421-2.6782-20.71-60.602c-2.1531 50.124 5.8955 51.62 1.0242 66.132l-9.2549 1.6587c-8.2859-8.3225-14.21-49.246-17.968-62.595-2.4246 21.439-2.0564 41.93-3.6858 63.229-4.3755 2.2297-6.9529 2.124-11.798 1.8069-7.562-18.181-7.3081-44.207-11.121-64.038l-10.152 65.658-6.1064 1.8149-4.7354-3.8079-1.8662-61.935c-3.2078 11.318-7.5242 22.687-10.19 34.064-3.4531 14.741-1.7139 25.797-14.456 36.112-4.9851-7.4719-3.0129-20.165-3.2839-28.936-0.4399-14.098-2.3486-28.352-3.8296-42.379-7.5918 19.67-6.4536 50.82-19.826 66.61l-5.2898 0.0295c-7.0205-10.129-3.051-50.375-3.2415-65.282-8.053 19.835-10.884 45.036-21.887 62.861l-5.1033-1.1467c-5.4634-8.8303 0.9983-53.959 1.4851-67.803-5.0442 11.834-10.495 23.762-14.557 35.968-3.3687 10.117-4.6169 20.457-12.238 28.332l-3.8088-2.01c-4.511-18.689 2.8311-45.877 5.0403-65.15-13.69 22.146-17.875 49.093-33.359 70.003-3.7239-23.085 2.3188-51.772 4.4773-75.284l-25.607 57.428c-5.8525 1.7605-6.542 0.8677-12.357-1.3452-0.0508-18.139 8.7937-42.307 12.094-61.004-5.3406 10.535-23.359 51.433-33.761 55.871l-7.0715-4.1038 18.582-58.706-36.05 53.418c-4.71-0.4739-7.4775-2.4919-11.405-4.9841l15.708-53.731c-8.489 10.984-26.694 44.596-37.278 48.598l-7.2827-5.0437c7.6172-18.096 14.688-35.816 19.636-54.856l-38.154 47.841-4.3167 0.5625-5.6282-4.8359 23.977-54.649c-15.941 13.556-29.678 30.438-42.766 46.711-5.9541-1.7393-7.9473-3.6304-12.112-7.9333 10.669-14.454 18.4-29.943 26.402-45.937-17.24 11.276-29.809 23.77-43.744 38.804-5.3025-2.3525-7.9685-4.7261-11.989-8.7373 9.3479-15.955 23.41-30.388 33.647-46.347-17.845 10.324-32.373 23.191-49.427 34.251-4.1597-2.5344-8.2437-4.3157-10.156-9.0632 14.583-14.208 26.614-31.919 40.096-47.312l-57.709 35.532-7.1304-4.0913c-0.2666-1.3923-1.1467-2.801-0.8083-4.1763 0.6052-2.4285 35.107-36.354 40.502-45.522l-55.047 32.918-9.2549-6.3169c2.8945-9.2661 40.498-37.221 49.211-45.675-25.331 9.9431-53.024 29.102-79.638 32.546 8.7133-18.105 34.154-33.887 49.677-46.588l-57.814 22.264c-5.7131-1.8958-6.7286-2.4795-10.795-6.9014 12.276-12.35 31.099-20.038 44.95-31.928l-67.56 17.846c12.657-17.55 36.122-27.468 54.467-38.126-22.022 2.1536-42.724 9.3931-64.492 12.841l-6.8387-6.9221c7.1011-7.7764 20.012-11.25 29.428-15.76 9.9784-4.7856 19.458-10.798 28.86-16.62l-67.319 12.465-5.2897-6.4229c3.8254-6.8164 49.122-26.977 58.551-32.402-21.788 4.2144-45.831 7.9038-66.481 15.422-6.1953-2.4158-5.8612-3.5837-8.9884-9.5833 17.934-12.105 39.956-20.864 58.923-32.008l-67.128 12.249-6.6143-7.9883 0.4908-3.5286c22.737-8.1069 44.252-17.432 65.199-29.495l-74.945 12.122c-3.5502-4.155-4.9384-3.8247-4.5151-9.5413 23.38-9.7185 45.644-17.508 68.381-29.165l-75.77 9.1182-5.2898-10.929c5.1289-8.5298 34.899-11.504 45.817-14.927 9.3186-2.9194 18.362-7.4045 27.176-11.589l-47.865 1.6038c-8.0872 0.6516-20.939 5.3142-28.463 2.7373-3.2922-1.1294-4.4602-8.4282-5.552-11.656 7.1464-10.352 41.774-4.473 71.669-23.863l-47.172 1.8955c-8.5354 0.7319-19.386 3.2916-27.477 0.7954-2.3529-4.557-3.5292-7.6542-4.0032-12.774 21.4-7.0023 45.877-4.417 66.126-14.428v-3.9646c-21.146-2.9067-49.554 3.1777-68.766-2.6868l-3.1823-11.098c0.7491-1.3243 0.9141-3.2496 2.2555-3.9688 8.324-4.464 30.718-4.0916 41.298-6.0167 10.698-1.9464 20.994-6.0969 30.998-10.265-22.339-5.5311-65.335 3.6805-76.658-3.1986l-1.3965-12.262c8.1885-7.7511 62.499-9.6426 77.573-11.987-33.078-7.6885-66.503-7.6698-77.039-13.239-0.7743-6.8671-1.9718-10.358 0.8633-16.759 24.214 1.0999 52.068 3.4989 75.584-2.6573l-54.928-9.4606c-6.7792-0.9647-16.762-0.8296-22.098-5.4117-0.3766-5.9614 0.0128-10.019 1.443-15.82l73.438 2.7839c-14.418-6.2493-67.67-15.198-73.396-21.35l2.5983-11.868c22.369-3.787 44.713 8.8978 67.361 0.2832-11.362-12.245-46.824-13.687-63.392-17.5l-2.3359-3.9772 3.6564-6.795c28.958 5.2888 57.67 10.248 87.098 6.0842-26.046-10.629-55.495-15.422-82.786-22.493l-2.0608-4.5695 4.3628-3.2114 63.409 11.944 2.484 5.8134c5.641 1.1383 7.8289 0.9985 13.102-1.3242-3.3981-4.4807-7.1094-4.4766-12.348-6.0547l-1.2273-8.4918c-6.0532 1.059-7.6509 0.6091-12.522-1.9886l-3.9652 5.6274-6.4281-6.2832c-9.6716-2.7806-20.691-5.5663-30.156-11.276-5.0612-3.0549-8.2688 0.0082-14.066-4.5951l3.0424-6.3721 10.58 4.4301 6.314-7.6709c0.5417-5.3059 0.0167-7.5442-2.3488-12.317-7.067 2.0521-3.2668 7.8827-9.2549 12.465-7.0077-6.8585 0.3895-9.0334-1.3246-17.694l-4.913-3.2579c-0.2158-9.0377 2.2006-16.611 4.7693-25.128l-4.8667-4.3326c0.3339-4.2943-0.2773-2.6667 2.3571-8.8937l-3.9608-0.3469-6.809 20.186c2.1414 4.9548 1.7097 2.4458 1.5193 7.4764l-5.2898 4.1635c-25.166 73.1-29.047 153.63-23.744 230.28 9.4032 135.91 84.851 274.57 186.73 363.13-29.893 26.884-56.287 59.51-85.076 87.884l-115.91 109.23c-64.8 66.888-64.743 68.433-75.728 74.539l-1.9677-5.1538c-3.064-1.5059-5.806-3.0715-8.6117-5.0137 10.74-17.483 38.581-36.023 54.234-50.692 85.319-85.943 109.41-107.72 134.08-142.48-68.414 44.825-183.48 173.33-201.54 179.42-5.5675-8.5205-6.3367-9.0229-10.677-12.968 49.651-43.424 103.67-82.202 145.24-134.19-66.22 35.088-127.32 102.45-156.49 120.96l-9.1871-11.902c3.6564-9.8159 25.251-21.54 34.121-28.027 123.2-92.935 107.62-78.1 149.14-124.39-16.004 7.3621-30.236 19.137-44.823 28.983-80.602 54.79-51.399 33.331-126.98 94.344-6.2377 4.9421-14.985 13.87-22.674 15.647l-11.451-14.775c45.631-35.647 107.98-62.976 143.65-109.29-42.935 18.752-41.334 19.863-118.13 72.559-9.8473 7.0955-22.34 19.082-33.901 22.281-2.7759-4.4473-6.7285-7.9041-10.444-11.555 15.61-19.469 25.432-13.447 180.69-122.4-67.577 17.893-132.11 68.434-188.76 107.5-4.782-3.2878-6.6184-7.2227-9.259-12.186 37.942-33.151 87.348-50.892 125.49-84.508l-14.87 3.1479c-46.253 9.1899-79.379 47.244-121.2 66.399-2.7677-4.4343-5.6833-8.0266-5.3871-13.497 46.693-35.596 104.44-49.956 149.17-89.763-85.166 21.112-141.46 73.2-159.06 73.511l-9.2336-11.522c4.9766-8.1448 23.317-14.183 32.352-18.507 91.659-44.997 100.15-47.379 143.56-76.282-64.183 11.809-122.94 50.579-181.81 77.01-3.6689-3.7656-6.3518-8.2676-9.2295-12.643 6.8661-6.9866 4.0388-4.5291 121.88-59.912 17.058-8.7671 32.394-20.3 48.881-30.02 21.908-12.909 43.566-22.979 63.747-38.828-15.818 4.1675-30.727 11.542-45.864 17.669-86.202 34.877-157.62 81.269-196.61 92.86l-6.9148-9.5413c0.5627-5.2932-0.7533-3.3806 4.0541-5.8726 35.598-18.426 74.369-33.108 110.87-50.075 29.153-13.556 56.283-29.271 84.483-44.558 27.024-14.648 52.482-27.299 76.265-47.134-29.611 4.2739-59.528 28.896-281.98 127.99l-11.32-19.031c201.68-69.168 173.04-58.692 300.3-132.84l-81.944 29.102c-31.891 12.816-203.05 90.875-220.27 86.881l-4.8837-11.919c7.2703-11.995 46.423-18.388 60.43-22.759 23.589-7.3547 128.05-40.799 146.16-57.437-23.266-3.146-38.46 3.8379-179.55 50.917-10.986 3.4443-26.178 10.646-37.582 8.1194l-2.8438-11.902c1.6843-1.7688 3.0258-3.9392 5.0527-5.3059 6.2271-4.1941 95.722-19.109 168.53-50.667-58.614 0.3552-118.12 21.688-175.15 34.268-5.4253-4.0195-7.7526-4.9673-10.309-11.36 1.7012-1.9844 3.0256-4.3708 5.1077-5.949 8.0028-6.0503 156.64-31.111 228.45-56.138-10.723-1.6245-24.404 1.4639-35.462 2.5132-50.616 4.8066-99.675 15.469-149.26 26.305-13.779 3.0125-41.095 13.167-53.265 9.4648l-1.4558-14.551c14.866-16.377 158.77-32.331 240.72-68.104-230.75 40.319-230.08 50.378-246.14 45.624-1.4219-5.1748-3-10.193-3.3346-15.579 29.305-13.713 68.424-10.836 100.13-16.416 29.089-5.1199 57.37-14.398 85.147-24.253l-74.124 5.1956c-17.164 1.938-105.49 19.624-114.71 15.296-1.8153-7.4807-4.5026-12.198-1.4344-19.404 19.944-6.2324 43.312-6.9644 64.149-9.207l80.844-12.067-0.313-2.1831c-38.366-18.167-121.72 13.157-148.77 7.2012-1.1893-6.5073-1.6802-9.7949 0.3469-16.307 29.14-3.918 59.478-3.5415 88.863-5.4412l75.744-7.6075c16.889-1.3413 35.208 0.4993 51.568-3.8799-30.701-2.8771-61.538-6.8206-92.405-6.7866-22.589 0.0253-116.14 11.424-128.93 3.7698l-0.3894-10.04c8.142-6.7952 97.314-4.87 116.21-6.6343 18.925-1.7688 36.296-4.6459 54.666-9.6472-66.201-12.064-132.69 1.1819-168.08-3.0376-2.1666-5.3864-3.9397-6.9642-1.9086-12.558l212.41-14.902c-128.67-14.903-201.77 7.0924-217.25-2.8389-1.1466-6.3638-1.9888-7.6331 0.8717-13.65 28.331-4.939 138.77 2.0596 235.87-13.688-22.765-6.4341-55.911-4.4993-233.23-2.3566-5.5477-5.0774-4.5532-8.6062-5.4166-15.909 12.269-8.5004 124.74 4.1245 242.72-8.1577-102.29-14.995-221.3-6.2712-241.27-13.113zm54.319-357.44c1.4683-6.0884 2.649-11.64 5.8651-17.106 45.568 19.328 87.538 49.068 129.6 74.916 23.033 14.157 51.733 27.502 70.73 46.897-12.774-2.8043 2.5985 4.7853-206.19-104.71zm1895.4 365.66 0.5881 25.31c-102.33-16.188-205.85-9.7654-308.95-11.809-6.3435-1.9758-10.639-4.9081-15.933-8.7332l0.855-3.8544c55.876 11.759 252.06 12.903 319.01-4.7175l4.4263 3.8038zm-1390.2 432.3c6.1824-1.1042 6.0344-0.1689 11.294 3.4697 0.1863 6.5923-9.5342 12.736-14.308 17.301-84.842 81.16-100.55 110.08-190.78 236.71-11.714 16.205-21.773 32.838-35.107 47.896-5.4167-3.9646-9.7668-8.8389-14.341-13.7l243.24-291.68zm-271.7 267.15-2.8395-7.0698c-5.4167-1.1257-2.8396-0.3726-7.7526-2.1877 15.245-27.003-12.576 19.913 265.9-276.41 4.6885 1.0532 7.4011 4.7302 10.909 7.9373-6.7395 9.5242-2.7358 4.6343-102.09 97.73-66.144 68.669-107.51 109.84-131.91 141.1-8.7513 11.208-19.86 32.474-32.221 38.9zm1242.9-781.69-6.3264 4.0365c-2.3784-0.0889-4.4475-1.0326-6.6904-1.7897l-0.1353-12.346 8.0486-4.3794 0.4995 0.2751c5.5139 4.6205 4.2316 7.3706 4.604 14.204zm-85.875-125.57-6.0178 4.4722-6.6521 2.5344-3.9272-3.6852c-0.9392-8.0516-0.7322-7.4382 4.2744-13.903l4.8706-0.9352c5.0314 3.6048 5.2345 5.8642 7.4521 11.517zm-18.214 11.678-10.22 6.8373-5.2219 1.1342-4.4519-3.3003-0.5415-6.901 10.486-6.8036c5.04-0.127 5.7935 1.7264 9.6992 4.6628l0.2497 4.3706zm-24.274 10.908-0.5583 6.9177c-3.6899 2.7205-4.9089 2.9702-9.2549 3.7954-4.2402-4.7939-5.1543-11.382-6.7368-17.428 8.51 1.1046 9.9658 0.7153 16.55 6.715zm-584.76 119.88c-32.081 34.991-66.333 45.484-112.67 47.075-33.186-4.1125-60.904-13.104-86.857-34.674-79.28-65.894-70.356-218.51 97.762-231.76 32.441 0.0846 60.096 8.1152 84.746 30.003 29.775 26.44 45.475 54.361 47.666 94.277 1.9169 34.953-6.5972 68.848-30.651 95.081zm-1743.3 761.56-1.3204 1.5317c-31.836-13.069-82.063-89.871-122.34-127.82-9.7753-9.2112-22.022-16.167-33.41-23.178 25.937 62.07 68.601 113.09 114.15 161.55-27.211-9.887-80.011-65.617-99.104-87.194-41.553-46.941-40.737-50.269-83.243-70.401 38.949 49.3 60.78 101.71 135.82 164.87-61.025-20.567-111.14-102.27-173.76-153.75 5.0401 13.485 9.7712 28.217 16.876 40.746 23.203 40.91 57.459 74.069 90.209 107.15-57.706-28.795-161.79-131.96-162.28-212.62-0.2285-38.727 7.1559-87.702 35.081-115.99 1.7773 14.018-7.6678 35.359-9.1195 50.367-1.8914 19.497 0.1354 39.548 1.9932 58.998 17.519-32.648 13.659-99.114 68.944-148.54-6.1635 24.958-26.241 35.124-30.828 129.64 21.37-62.003 39.749-118.99 89.04-165.08-37.474 72.983-40.797 70.759-47.819 131.86 2.5513-1.9688-0.9089 2.5723 32.17-64.592 38.064-69.769 51.655-77.386 75.241-95.91-30.532 45.45-56.528 93.549-68.936 147.37 29.737-49.851 56.693-104 96.205-146.95 9.5934-10.429 19.149-21.642 32.068-27.921-34.502 43.991-82.515 104.98-86.942 162.84 27.676-40.068 57.541-110.91 142.98-188.28-31.383 41.858-68.466 87.089-89.9 134.99-7.685 17.174-11.785 36.688-18.298 54.5l119.64-168.3 2.3783 1.0239c-37.938 57.75-73.726 117.21-79.629 187.94-7.012 84.012 30.634 160.71 81.352 225.45 13.702 17.491 29.58 33.231 43.96 50.193-13.474-4.4851-27.959-16.874-38.335-26.419-60.259-55.446-107.39-144.62-141.29-157.1 3.6219 22.947 72.536 135.86 108.43 169.02zm-311.61-112.79c5.9625 10.43 52.41 71.476 52.41 75.588l-7.9302-3.9812-22.132-15.985c-29.563-23.588-57.438-60.064-61.06-98.859-4.9469-52.961 9.0347-92.348 42.318-132.38-16.24 51.852-46.944 99.813-3.6054 175.62zm286.79-92.932c-16.259-91.036 36.156-186.74 86.734-259.22l0.6815 0.0127c1.1256 10.705-14.49 34.03-19.073 45.62-61.552 155.61-36.359 288.9 33.816 378.61 19.783 25.294 44.603 48.31 66.921 71.459-9.4621-3.7107-16.766-9.5034-24.824-15.537-67.213-58.355-128.17-130.85-144.26-220.94zm3653-23.804c13.415-58.275 22.217-111.95 23.022-171.93 3.6392 0.0337 1.6929-0.4614 5.417 2.6443-0.1831 155.84-2.7949 140.77-25.264 170.79-1.9468 0.0047-0.8042 0.2203-3.1743-1.5019zm103.72-220.79c4.6133 17.06 7.8296 29.042 18.409 43.568-12.035 19.044-8.5259 13.877-15.827 23.559-6.0942-19.154-2.8779-46.83-2.582-67.126zm220.56 29.102c-78.21-18.706-109.85-48.456-168.55-100.9-222.61-212.8-279.98-275.43-392.56-363.54-285.24-223.28-629.71-379.12-985.66-446.31l-415.9-58.706c-209.58-11.643-537.51 25.3-792 100.93-49.668 14.762-97.712 33.536-146.07 51.983-466.35 177.85-704.85 399.15-923.48 594.16l-3.3431-1.2015c90.528-104.99 170.83-205.11 320.79-322.13 161.77-116.42 333.13-245.24 544.85-344.01 73.083-34.094 147.28-55.927 223.8-79.989 85.605-26.922 169.56-53.73 257.34-73.503 258.84-58.294 532.76-63.96 819.49-5.9954 190.79 46.845 517.13 118.28 851.05 335.58 367.96 239.45 587.01 584.01 810.25 713.63z"/> <path d="m3476.1 3171.2c-64.796 27.42-72.366 55.42-453.25 161.95-19.2 4.9504-42.77 8.2422-60.764 15.693 74.364 5.8079 354.18-38.35 520.14-176.66-4.676-1.2819-2.615-1.1635-6.1228-0.9902z"/> <path d="m3693.6 3063c-42.783 32.046-93.369 64.757-130.52 103.12 107.49-47.904 202.44-118.22 295.29-189.51 79.485-61.029 158.55-124.27 228.88-195.92 50.186-51.113 202.51-237.07 226.44-301.96-228.07 293.8-302.77 342.18-620.09 584.27z"/> <path d="m2620.9 3379.2c-467.41 23.047-934.44-68.967-1359.3-264.78-236.46-108.98-256.35-146.01-346.59-187.63 67.598 66.754 146.79 109.59 228.21 156.85 126.92 73.68 260.79 138.36 399.38 187.15 102.86 36.204 504.62 150.5 916.28 147.45 151.46-1.1213 333.75-33.587 471.14-69.893l-0.2246-2.7883c-120.92 16.476-53.457 8.9751-308.92 33.641z"/> <path d="m967.4 2696.5 5.4123 1.1848c-72.875-92.627-115.81-191.18-154.89-301.54 1.5532 27.485 11.197 57.53 19.83 83.564 28.344 85.468 65.36 153.28 129.65 216.79z"/> <path d="m3396.8 2901.6c124.66-21.66 227.9-92.197 278.42-167.07-156.01 108.21-164.07 107.75-280.03 164.2l0.6436 2.3906 0.9607 0.4782z"/> <path d="m1261.5 2856.1c57.717 30.079 115.09 53.455 181.21 54.839l-310.24-141.74c39.821 35.524 81.808 62.298 129.02 86.902z"/> <path d="m1055.7 2642.7c15.501 13.908 32.233 25.124 50.481 35.055-24.548-24.545-47.722-48.95-67.924-77.344-81.129-114.02-117.71-266.47-128.07-278.27 6.1404 97.404 72.947 255.44 145.52 320.56z"/> <path d="m3988 2248c3.2561-21.648 2.0144-12.896 5.4419-38.655-45.95 113.88-131.49 235.18-171.54 276.45-9.2334 9.5115-20.926 18.9-28.04 30.003 98.046-64.198 170.57-150.72 194.14-267.79z"/> <path d="m2107 3139.4-445.54-129.16c110.49 74.945 249.27 113.3 381.05 124.94 20.406 1.7981 44.252 6.5581 64.492 4.2185z"/> <path d="m997.88 2664.6c19.122 20.45 30.325 28.016 45.441 37.158-167.38-229.24-165.3-358.99-185.87-395.54-0.7489 19.641 4.3375 40.297 7.4396 59.714 17.088 106.94 57.903 218.34 132.99 298.66z"/> <path d="m1044.8 2551.3c51.009 83.514 137.51 156.1 226.02 199.88-95.302-85.416-185.06-154.44-264.06-326.76l-31.798-78.372c-5.4716-15.338-10.867-39.857-19.932-53.066 3.5546 28.551 12.632 56.142 20.101 83.86 16.457 61.046 36.474 120.11 69.668 174.46z"/> <path d="m3759.3 2734.1c22.771-11.978 46.977-23.398 68.406-37.543 154.6-102.06 234.73-275.61 232.17-359.33-49.596 113.38-115.68 216.99-202.9 305.42-30.689 31.12-70.472 57.475-97.67 91.451z"/> <path d="m4033.8 2220.8c-61.667 222.51-172.12 323.55-258.69 406.73-11.807 10.515-25.606 20.339-34.442 33.532 59.067-36.121 118.57-74.717 167.26-124.68 86.522-88.782 130.08-227.72 125.87-315.59z"/> <path d="m3612.6 2874.9c87.152-46.898 133.29-76.932 187.71-142.82-21.303 17.022-44.633 28.695-67.522 43.221-147.25 93.437-209.35 117.95-399.55 186.95-41.84 15.181-86.243 24.494-126.94 42.396l2.6953 2.6611c142.55-10.391 278.96-65.336 403.61-132.4z"/> </svg>