<?xml version="1.0" encoding="UTF-8"?>
<svg enable-background="new 0 0 125.898 61.544" viewBox="0 0 125.898 61.544" xmlns="http://www.w3.org/2000/svg">
 <path d="m0 35.533s51-72.667 124-10.167c0 0 3.333 3.001 1.167 6.834-2.73 4.832-9.334-3.167-9.334-3.167s-50.666-60-115.83 6.5z"/>
 <path d="m4 35.366s56-61.833 108.83-2.333c0 0 7.834 9.666 2.667 13.833s-7.834-1.167-9.167-2-2.167 0.5-3.167 2.167-48.833 36.167-98.5-7.5c0 0 53.833 43.334 97.167 2.834 0 0 4.834-5.333-0.166-11.5s-35.001-44.835-97.667 4.499z"/>
 <path d="m76.903,11.301c4.38,4.295 7.097,10.28 7.097,16.899 0,13.071-10.596,23.667-23.667,23.667s-23.667-10.596-23.667-23.667c0-6.365 2.513-12.144 6.601-16.396 0,0 6.566-2.771 17.066-2.771s16.57,2.268 16.57,2.268zm-27.855,15.923-9.29-.86c-.054.606-.093,1.217-.093,1.837 0,3.252.772,6.316 2.11,9.053l8.391-4.065c-.741-1.507-1.168-3.195-1.168-4.987 .001-.332.023-.656.05-.978zm11.118-7.525c-4.787,0-8.667,3.88-8.667,8.667s3.88,8.667 8.667,8.667 8.667-3.88 8.667-8.667-3.88-8.667-8.667-8.667z"/>
</svg>
