<?xml version="1.0" encoding="UTF-8"?>
<svg viewBox="0 0 256 256" xmlns="http://www.w3.org/2000/svg" xmlns:xlink="http://www.w3.org/1999/xlink">
 <defs>
  <filter id="q">
   <feGaussianBlur stdDeviation="5.728"/>
  </filter>
  <linearGradient id="a">
   <stop stop-color="#9c9c9c" offset="0"/>
   <stop stop-color="#fff" offset="1"/>
  </linearGradient>
  <linearGradient id="e">
   <stop stop-color="#666" offset="0"/>
   <stop stop-color="#fff" offset="1"/>
  </linearGradient>
  <linearGradient id="f">
   <stop stop-color="#fff" offset="0"/>
   <stop stop-color="#4d4d4d" offset="1"/>
  </linearGradient>
  <linearGradient id="m" x2="0" y1="961.04" y2="755.69" gradientUnits="userSpaceOnUse">
   <stop stop-color="#999" offset="0"/>
   <stop stop-color="#e6e6e6" offset="1"/>
  </linearGradient>
  <linearGradient id="j" x1="804.15" x2="804" y1="579.95" y2="550.51" gradientUnits="userSpaceOnUse">
   <stop stop-color="#d88000" offset="0"/>
   <stop stop-color="#ffe1b5" offset=".311"/>
   <stop stop-color="#ec9c1a" offset=".71"/>
   <stop stop-color="#885600" offset="1"/>
  </linearGradient>
  <linearGradient id="p" x2="0" y1="829.03" y2="887.92" gradientUnits="userSpaceOnUse" xlink:href="#f"/>
  <linearGradient id="o" x1="33.469" x2="141.56" gradientUnits="userSpaceOnUse" xlink:href="#f"/>
  <linearGradient id="n" x2="0" y1="586.86" y2="544.6" gradientUnits="userSpaceOnUse" xlink:href="#a"/>
  <linearGradient id="l" x1="136.21" x2="157.6" y1="958.07" y2="902.61" gradientUnits="userSpaceOnUse" xlink:href="#a"/>
  <linearGradient id="k" x1="164.58" x2="143.01" y1="171.58" y2="143.57" gradientUnits="userSpaceOnUse" xlink:href="#a"/>
  <mask id="d" maskUnits="userSpaceOnUse">
   <path d="m84.094 829.08c-25.153 1.2433-47.92 22.016-50.625 47.25 12.099 10.751 30.812 16.083 45.25 6.8438 8.6561-5.6183 15.868-14.308 26.688-15.719 12.909-2.4273 25.778 3.0259 36.156 10.312-2.2755-26.836-27.239-49.438-54.188-48.719-1.0937 0.0112-2.1883-0.0277-3.2813 0.0312z" fill="url(#p)" fill-rule="evenodd"/>
  </mask>
  <mask id="c" maskUnits="userSpaceOnUse">
   <path d="m84.094 829.08c-25.153 1.2433-47.92 22.016-50.625 47.25 12.099 10.751 30.812 16.083 45.25 6.8438 8.6561-5.6183 15.868-14.308 26.688-15.719 12.909-2.4273 25.778 3.0259 36.156 10.312-2.2755-26.836-27.239-49.438-54.188-48.719-1.0937 0.0112-2.1883-0.0277-3.2813 0.0312z" fill="url(#o)" fill-rule="evenodd"/>
  </mask>
  <mask id="b" maskUnits="userSpaceOnUse">
   <path d="m84.094 829.08c-25.153 1.2433-47.92 22.016-50.625 47.25 12.099 10.751 30.812 16.083 45.25 6.8438 8.6561-5.6183 15.868-14.308 26.688-15.719 12.909-2.4273 25.778 3.0259 36.156 10.312-2.2755-26.836-27.239-49.438-54.188-48.719-1.0937 0.0112-2.1883-0.0277-3.2813 0.0312z" fill="url(#i)" fill-rule="evenodd" opacity=".788"/>
  </mask>
  <radialGradient id="h" cx="83.933" cy="949.78" r="105.6" gradientUnits="userSpaceOnUse">
   <stop stop-color="#d5f6ff" offset="0"/>
   <stop stop-color="#0098be" offset="1"/>
  </radialGradient>
  <radialGradient id="i" cx="87.516" cy="851.13" r="54.047" gradientTransform="matrix(1.5624 0 0 .84387 -49.216 156.4)" gradientUnits="userSpaceOnUse" xlink:href="#e"/>
  <radialGradient id="g" cx="165.08" cy="171.85" r="11.283" gradientTransform="matrix(2.7952 .74897 -.92973 3.4698 -136.57 -548.09)" gradientUnits="userSpaceOnUse" xlink:href="#e"/>
 </defs>
 <g transform="matrix(.87538 0 0 .87538 17.638 -681.13)">
  <path d="m83.875 810.02c-40.258 0-72.875 32.617-72.875 72.875s32.617 72.875 72.875 72.875c13.272 0 25.717-3.5553 36.438-9.75 3.3047 3.0396 7.6874 4.9375 12.531 4.9375 1.9922 0 3.9192-0.3244 5.7188-0.9063l11.781 11.781c0.0921 2.5836 1.0408 4.9603 2.5938 6.8125l-2.3438 2.3438 67.844 67.844 2.6563-2.6562c2.0043 1.9184 4.7252 3.125 7.7188 3.125 6.164 0 11.156-5.0235 11.156-11.188 0-3.0019-1.1971-5.7128-3.125-7.7188l2.5-2.5-67.812-67.812-2.8438 2.8125c-1.9118-1.6085-4.3813-2.5884-7.0625-2.625l-11.375-11.375c0.7581-2.0246 1.1563-4.2123 1.1563-6.5 0-4.767-1.8583-9.0573-4.8125-12.344 6.466-10.881 10.188-23.58 10.188-37.156 0-40.258-32.648-72.875-72.906-72.875zm0 5.9688c5.4454 0.0123 10.902 0.692 16.188 2 25.903 6.0255 46.397 28.998 50.062 55.25 4.1167 25.725-8.7369 52.824-30.812 66.469-23.188 14.994-55.437 12.954-76.906-4.25-20.58-15.851-29.952-44.236-23.375-69.281 6.9621-28.849 35.176-50.684 64.844-50.188zm61.594 105.88c-0.3649 0.607-0.7284 1.1946-1.125 1.7813-0.7844 1.1602-1.6238 2.2908-2.4688 3.4063-0.567 0.7485-1.1219 1.4961-1.7188 2.2188-0.7431 0.8998-1.5248 1.767-2.3125 2.625 1.413-1.5537 2.7608-3.1696 4.0313-4.8438s2.4636-3.4065 3.5938-5.1875z" fill-rule="evenodd" filter="url(#q)"/>
  <path transform="rotate(45)" d="m763.72 557.65h26.098v16.163h-26.098z" fill="url(#n)" fill-rule="evenodd"/>
  <path d="m83.874 815.99c-29.668-0.4962-57.869 21.347-64.831 50.196-6.5766 25.045 2.769 53.435 23.349 69.286 21.47 17.204 53.745 19.232 76.933 4.2375 22.076-13.645 34.933-40.742 30.816-66.467-3.6651-26.252-24.189-49.238-50.092-55.263-5.286-1.308-10.73-1.9771-16.175-1.9894z" fill="url(#h)" fill-rule="evenodd" opacity=".404"/>
  <path d="m83.8738,810.0184c-40.2578,0-72.8814,32.6236-72.8814,72.8814s32.6236,72.8814 72.8814,72.8814 72.9185-32.6236 72.9185-72.8814-32.6607-72.8814-72.9185-72.8814zm0,5.9684c2.3093,0 4.6091.1423 6.8581.3707s4.4581.5553 6.6357,1.0009 4.3184,1.0166 6.4133,1.6682 4.1528,1.3779 6.1538,2.2243 3.9242,1.7875 5.8201,2.8174 3.744,2.1712 5.5236,3.3735 3.5008,2.492 5.1529,3.8554 3.2317,2.7869 4.7451,4.3002 2.9739,3.093 4.3373,4.7451 2.6531,3.3733 3.8554,5.1529 2.3065,3.6277 3.3364,5.5236 1.971,3.8562 2.8174,5.8572 1.6098,4.0218 2.2613,6.1167 1.1855,4.2357 1.6311,6.4133 .8096,4.4237 1.038,6.6728 .3336,4.5118.3336,6.821-.1052,4.6091-.3336,6.8581-.5924,4.4581-1.038,6.6357-.9795,4.3184-1.6311,6.4133-1.415,4.1528-2.2613,6.1538-1.7875,3.9242-2.8174,5.8201-2.1341,3.744-3.3364,5.5236-2.492,3.5008-3.8554,5.1528-2.824,3.2317-4.3373,4.7451-3.093,2.9739-4.7451,4.3373-3.3733,2.6531-5.1529,3.8554-3.6277,2.3065-5.5236,3.3364-3.8191,1.971-5.8201,2.8174-4.0589,1.6098-6.1538,2.2613-4.2357,1.1855-6.4133,1.6311-4.3867.8096-6.6357,1.038-4.5488.3336-6.8581.3336-4.572-.1052-6.821-.3336-4.4952-.5924-6.6728-1.038-4.2813-.9795-6.3762-1.6311-4.1528-1.415-6.1538-2.2613-3.9613-1.7875-5.8572-2.8174-3.744-2.1341-5.5236-3.3364-3.5008-2.492-5.1529-3.8554-3.2317-2.824-4.7451-4.3373-2.9368-3.093-4.3002-4.7451-2.6531-3.3733-3.8554-5.1528-2.3435-3.6277-3.3735-5.5236-1.971-3.8191-2.8174-5.8201-1.5727-4.0589-2.2243-6.1538-1.2226-4.2357-1.6682-6.4133-.7725-4.3867-1.0009-6.6357-.3336-4.5488-.3336-6.8581 .1052-4.572.3336-6.821 .5553-4.4952 1.0009-6.6728 1.0166-4.3184 1.6682-6.4133 1.3779-4.1157 2.2243-6.1167 1.7875-3.9613 2.8174-5.8572 2.1712-3.744 3.3735-5.5236 2.492-3.5008 3.8554-5.1529 2.7869-3.2317 4.3002-4.7451 3.093-2.9368 4.7451-4.3002 3.3733-2.6531 5.1529-3.8554 3.6277-2.3435 5.5236-3.3735 3.8562-1.971 5.8572-2.8174 4.0589-1.5727 6.1538-2.2243 4.1986-1.2226 6.3762-1.6682 4.4237-.7725 6.6728-1.0009 4.5118-.3707 6.821-.3707z" fill="url(#m)" fill-rule="evenodd"/>
  <path d="m120.28 945.99c3.3084 3.057 7.7073 4.9675 12.567 4.9675 10.25 0 18.572-8.3227 18.572-18.572 0-4.7828-1.885-9.0911-4.8563-12.382-0.7254 1.2207-1.431 2.4596-2.2243 3.633-1.3107 1.9386-2.7027 3.8351-4.189 5.6348s-3.0583 3.5043-4.708 5.1529-3.3891 3.2228-5.1899 4.708-3.658 2.8794-5.5977 4.189c-1.406 0.9492-2.901 1.8176-4.3744 2.6691z" fill="url(#l)" fill-rule="evenodd"/>
  <g transform="matrix(1.1863 0 0 1.1863 -19.814 -165.12)">
   <g mask="url(#b)">
    <g mask="url(#c)" opacity=".788">
     <path d="m84.094 829.08c-25.153 1.2433-47.92 22.016-50.625 47.25 12.099 10.751 30.812 16.083 45.25 6.8438 8.6561-5.6183 15.868-14.308 26.688-15.719 12.909-2.4273 25.778 3.0259 36.156 10.312-2.2755-26.836-27.239-49.438-54.188-48.719-1.0937 0.0112-2.1883-0.0277-3.2813 0.0312z" fill="#fff" fill-rule="evenodd" mask="url(#d)"/>
    </g>
   </g>
   <g mask="url(#b)">
    <g mask="url(#c)" opacity=".788">
     <path d="m84.094 829.08c-25.153 1.2433-47.92 22.016-50.625 47.25 12.099 10.751 30.812 16.083 45.25 6.8438 8.6561-5.6183 15.868-14.308 26.688-15.719 12.909-2.4273 25.778 3.0259 36.156 10.312-2.2755-26.836-27.239-49.438-54.188-48.719-1.0937 0.0112-2.1883-0.0277-3.2813 0.0312z" fill="#fff" fill-rule="evenodd" mask="url(#d)"/>
    </g>
   </g>
  </g>
  <path transform="matrix(1.035 0 0 1.035 2.3041 801.68)" d="m164.58 154.35c0 5.9555-4.8279 10.783-10.783 10.783s-10.783-4.8279-10.783-10.783 4.8279-10.783 10.783-10.783 10.783 4.8279 10.783 10.783z" fill="url(#g)" fill-rule="evenodd"/>
  <path transform="matrix(1.035 0 0 1.035 69.619 868.37)" d="m164.58 154.35c0 5.9555-4.8279 10.783-10.783 10.783s-10.783-4.8279-10.783-10.783 4.8279-10.783 10.783-10.783 10.783 4.8279 10.783 10.783z" fill="url(#k)" fill-rule="evenodd"/>
  <path transform="rotate(45)" d="m793.08 550.52h95.93v29.584h-95.93z" fill="url(#j)" fill-rule="evenodd"/>
 </g>
</svg>
