<?xml version="1.0" encoding="UTF-8" standalone="no"?>
<svg
   viewBox="0 0 256 256"
   version="1.1"
   id="svg26"
   sodipodi:docname="find-pixel-inspector-48.svg"
   inkscape:version="1.4.2 (ebf0e94, 2025-05-08)"
   inkscape:export-filename="find-pixel-inspector-48.png"
   inkscape:export-xdpi="18"
   inkscape:export-ydpi="18"
   xmlns:inkscape="http://www.inkscape.org/namespaces/inkscape"
   xmlns:sodipodi="http://sodipodi.sourceforge.net/DTD/sodipodi-0.dtd"
   xmlns:xlink="http://www.w3.org/1999/xlink"
   xmlns="http://www.w3.org/2000/svg"
   xmlns:svg="http://www.w3.org/2000/svg">
  <sodipodi:namedview
     id="namedview26"
     pagecolor="#ffffff"
     bordercolor="#000000"
     borderopacity="0.25"
     inkscape:showpageshadow="2"
     inkscape:pageopacity="0.0"
     inkscape:pagecheckerboard="0"
     inkscape:deskcolor="#d1d1d1"
     inkscape:zoom="1.9074357"
     inkscape:cx="-14.15513"
     inkscape:cy="100.92083"
     inkscape:window-width="1920"
     inkscape:window-height="1009"
     inkscape:window-x="1912"
     inkscape:window-y="-8"
     inkscape:window-maximized="1"
     inkscape:current-layer="svg26"
     inkscape:export-bgcolor="#ffffff00" />
  <defs
     id="defs15">
    <filter
       id="q"
       x="-0.060039597"
       y="-0.059957792"
       width="1.1200792"
       height="1.1199156">
      <feGaussianBlur
         stdDeviation="5.728"
         id="feGaussianBlur1" />
    </filter>
    <linearGradient
       id="a">
      <stop
         stop-color="#9c9c9c"
         offset="0"
         id="stop1" />
      <stop
         stop-color="#fff"
         offset="1"
         id="stop2" />
    </linearGradient>
    <linearGradient
       id="e">
      <stop
         stop-color="#666"
         offset="0"
         id="stop3" />
      <stop
         stop-color="#fff"
         offset="1"
         id="stop4" />
    </linearGradient>
    <linearGradient
       id="f">
      <stop
         stop-color="#fff"
         offset="0"
         id="stop5" />
      <stop
         stop-color="#4d4d4d"
         offset="1"
         id="stop6" />
    </linearGradient>
    <linearGradient
       id="m"
       x2="0"
       y1="961.04"
       y2="755.69"
       gradientUnits="userSpaceOnUse">
      <stop
         stop-color="#999"
         offset="0"
         id="stop7" />
      <stop
         stop-color="#e6e6e6"
         offset="1"
         id="stop8" />
    </linearGradient>
    <linearGradient
       id="j"
       x1="804.15"
       x2="804"
       y1="579.95"
       y2="550.51"
       gradientUnits="userSpaceOnUse">
      <stop
         stop-color="#d88000"
         offset="0"
         id="stop9" />
      <stop
         stop-color="#ffe1b5"
         offset=".311"
         id="stop10" />
      <stop
         stop-color="#ec9c1a"
         offset=".71"
         id="stop11" />
      <stop
         stop-color="#885600"
         offset="1"
         id="stop12" />
    </linearGradient>
    <linearGradient
       id="p"
       x2="0"
       y1="829.03"
       y2="887.92"
       gradientUnits="userSpaceOnUse"
       xlink:href="#f" />
    <linearGradient
       id="o"
       x1="33.469"
       x2="141.56"
       gradientUnits="userSpaceOnUse"
       xlink:href="#f" />
    <linearGradient
       id="n"
       x2="0"
       y1="586.86"
       y2="544.6"
       gradientUnits="userSpaceOnUse"
       xlink:href="#a" />
    <linearGradient
       id="l"
       x1="136.21"
       x2="157.6"
       y1="958.07"
       y2="902.61"
       gradientUnits="userSpaceOnUse"
       xlink:href="#a" />
    <linearGradient
       id="k"
       x1="164.58"
       x2="143.01"
       y1="171.58"
       y2="143.57"
       gradientUnits="userSpaceOnUse"
       xlink:href="#a" />
    <mask
       id="d"
       maskUnits="userSpaceOnUse">
      <path
         d="m84.094 829.08c-25.153 1.2433-47.92 22.016-50.625 47.25 12.099 10.751 30.812 16.083 45.25 6.8438 8.6561-5.6183 15.868-14.308 26.688-15.719 12.909-2.4273 25.778 3.0259 36.156 10.312-2.2755-26.836-27.239-49.438-54.188-48.719-1.0937 0.0112-2.1883-0.0277-3.2813 0.0312z"
         fill="url(#p)"
         fill-rule="evenodd"
         id="path12" />
    </mask>
    <mask
       id="c"
       maskUnits="userSpaceOnUse">
      <path
         d="m84.094 829.08c-25.153 1.2433-47.92 22.016-50.625 47.25 12.099 10.751 30.812 16.083 45.25 6.8438 8.6561-5.6183 15.868-14.308 26.688-15.719 12.909-2.4273 25.778 3.0259 36.156 10.312-2.2755-26.836-27.239-49.438-54.188-48.719-1.0937 0.0112-2.1883-0.0277-3.2813 0.0312z"
         fill="url(#o)"
         fill-rule="evenodd"
         id="path13" />
    </mask>
    <mask
       id="b"
       maskUnits="userSpaceOnUse">
      <path
         d="m84.094 829.08c-25.153 1.2433-47.92 22.016-50.625 47.25 12.099 10.751 30.812 16.083 45.25 6.8438 8.6561-5.6183 15.868-14.308 26.688-15.719 12.909-2.4273 25.778 3.0259 36.156 10.312-2.2755-26.836-27.239-49.438-54.188-48.719-1.0937 0.0112-2.1883-0.0277-3.2813 0.0312z"
         fill="url(#i)"
         fill-rule="evenodd"
         opacity=".788"
         id="path14" />
    </mask>
    <radialGradient
       id="h"
       cx="83.933"
       cy="949.78"
       r="105.6"
       gradientUnits="userSpaceOnUse">
      <stop
         stop-color="#d5f6ff"
         offset="0"
         id="stop14" />
      <stop
         stop-color="#0098be"
         offset="1"
         id="stop15" />
    </radialGradient>
    <radialGradient
       id="i"
       cx="87.516"
       cy="851.13"
       r="54.047"
       gradientTransform="matrix(1.5624 0 0 .84387 -49.216 156.4)"
       gradientUnits="userSpaceOnUse"
       xlink:href="#e" />
    <radialGradient
       id="g"
       cx="165.08"
       cy="171.85"
       r="11.283"
       gradientTransform="matrix(2.7952,0.74897,-0.92973,3.4698,-136.57,-548.09)"
       gradientUnits="userSpaceOnUse"
       xlink:href="#e" />
    <filter
       style="color-interpolation-filters:sRGB;"
       inkscape:label="Drop Shadow"
       id="filter28"
       x="-0.094189602"
       y="-0.16253297"
       width="1.2617737"
       height="1.451715">
      <feFlood
         result="flood"
         in="SourceGraphic"
         flood-opacity="0.498039"
         flood-color="rgb(255,255,255)"
         id="feFlood27" />
      <feGaussianBlur
         result="blur"
         in="SourceGraphic"
         stdDeviation="3.000000"
         id="feGaussianBlur27" />
      <feOffset
         result="offset"
         in="blur"
         dx="6.000000"
         dy="6.000000"
         id="feOffset27" />
      <feComposite
         result="comp1"
         operator="in"
         in="flood"
         in2="offset"
         id="feComposite27" />
      <feComposite
         result="comp2"
         operator="over"
         in="SourceGraphic"
         in2="comp1"
         id="feComposite28" />
    </filter>
    <filter
       y="-0.26385223"
       height="1.5277045"
       inkscape:menu-tooltip="Darkens the edge with an inner blur and adds a flexible glow"
       inkscape:menu="Shadows and Glows"
       inkscape:label="Dark and Glow"
       style="color-interpolation-filters:sRGB;"
       id="filter45"
       x="-0.1529052"
       width="1.3058104">
      <feGaussianBlur
         stdDeviation="5"
         result="result6"
         id="feGaussianBlur44" />
      <feComposite
         result="result8"
         in="SourceGraphic"
         operator="atop"
         in2="result6"
         id="feComposite44" />
      <feComposite
         result="result9"
         operator="over"
         in2="SourceAlpha"
         in="result8"
         id="feComposite45" />
      <feColorMatrix
         values="1 0 0 0 0 0 1 0 0 0 0 0 1 0 0 0 0 0 1 0 "
         result="result10"
         id="feColorMatrix45" />
      <feBlend
         in="result10"
         mode="normal"
         in2="result6"
         id="feBlend45" />
    </filter>
    <filter
       y="-0.27763316"
       height="1.5552663"
       inkscape:menu-tooltip="Darkens the edge with an inner blur and adds a flexible glow"
       inkscape:menu="Shadows and Glows"
       inkscape:label="Dark and Glow"
       style="color-interpolation-filters:sRGB;"
       id="filter47"
       x="-0.056852503"
       width="1.113705">
      <feGaussianBlur
         stdDeviation="5"
         result="result6"
         id="feGaussianBlur45" />
      <feComposite
         result="result8"
         in="SourceGraphic"
         operator="atop"
         in2="result6"
         id="feComposite46" />
      <feComposite
         result="result9"
         operator="over"
         in2="SourceAlpha"
         in="result8"
         id="feComposite47" />
      <feColorMatrix
         values="1 0 0 0 0 0 1 0 0 0 0 0 1 0 0 0 0 0 1 0 "
         result="result10"
         id="feColorMatrix47" />
      <feBlend
         in="result10"
         mode="normal"
         in2="result6"
         id="feBlend47" />
    </filter>
  </defs>
  <path
     d="m 186.68913,108.20952 -7.55629,-10.817673 -7.7471,10.817673 q -1.67917,2.26762 -2.86223,3.23415 -1.14489,0.96653 -2.93856,0.96653 -1.98447,0 -3.39651,-1.18957 -1.37387,-1.22675 -1.37387,-2.78806 0,-1.59849 2.13713,-4.57242 l 9.42628,-13.159652 -8.35771,-10.96637 q -2.1753,-2.713712 -2.1753,-4.721116 0,-1.561313 1.29755,-2.713712 1.29754,-1.152398 3.39651,-1.152398 1.83183,0 3.01488,1.003702 1.22122,1.003701 2.82407,3.159801 l 6.75486,8.996142 6.56405,-8.996142 q 1.64101,-2.230448 2.82407,-3.196975 1.22122,-0.966528 3.01488,-0.966528 2.06081,0 3.39651,1.152398 1.37387,1.115224 1.37387,2.713712 0,1.152399 -0.57244,2.230449 -0.53429,1.040875 -1.67918,2.490667 l -8.35771,10.96637 9.42628,13.159652 q 2.21346,3.08545 2.21346,4.64676 0,1.59849 -1.37387,2.75089 -1.37388,1.1524 -3.39652,1.1524 -1.79366,0 -3.05304,-1.0037 -1.22122,-1.00371 -2.82407,-3.19698 z m 46.17731,-13.940304 h -20.37908 q 0.0381,3.457198 1.41204,6.096564 1.41203,2.63936 3.70181,3.97763 2.32795,1.33827 5.11385,1.33827 1.86999,0 3.39652,-0.40892 1.56468,-0.44609 3.01488,-1.33827 1.4502,-0.92935 2.67141,-1.97022 1.22122,-1.04088 3.16754,-2.825239 0.80142,-0.669134 2.28978,-0.669134 1.60285,0 2.59509,0.855005 0.99224,0.855008 0.99224,2.416318 0,1.37544 -1.10673,3.23415 -1.10673,1.82153 -3.35835,3.53154 -2.21346,1.67284 -5.60997,2.78806 -3.35835,1.11523 -7.7471,1.11523 -10.03689,0 -15.6087,-5.57612 -5.5718,-5.57612 -5.5718,-15.12988 0,-4.498071 1.37387,-8.327007 1.37387,-3.86611 4.00712,-6.616996 2.63325,-2.750886 6.48772,-4.200678 3.85447,-1.486965 8.54853,-1.486965 6.10609,0 10.45668,2.527841 4.38875,2.490667 6.56404,6.4683 2.1753,3.977633 2.1753,8.103962 0,3.828936 -2.25162,4.981334 -2.25162,1.115225 -6.33507,1.115225 z m -20.37908,-5.761992 h 18.89072 q -0.38163,-5.204379 -2.90039,-7.769394 -2.4806,-2.60219 -6.56405,-2.60219 -3.89263,0 -6.4114,2.639364 -2.48059,2.602189 -3.01488,7.73222 z m 37.74327,17.732066 V 62.225109 q 0,-3.048279 1.37387,-4.609593 1.41204,-1.561314 3.77815,-1.561314 2.36611,0 3.8163,1.561314 1.4502,1.52414 1.4502,4.609593 v 44.014181 q 0,3.08545 -1.48836,4.64677 -1.45019,1.52414 -3.77814,1.52414 -2.28979,0 -3.73998,-1.59849 -1.41204,-1.59849 -1.41204,-4.57242 z"
     id="text26"
     style="font-size:64px;line-height:0px;font-family:'Arial Rounded MT Bold';-inkscape-font-specification:'Arial Rounded MT Bold, Normal';display:none;fill:#4d4d4d;stroke:#ffffff;stroke-width:1.20529"
     aria-label="xel" />
  <path
     d="m -4.5666413,217.80031 v -32.2021 q 0,-2.50926 1.1735149,-3.76388 1.1735137,-1.25463 3.03396372,-1.25463 1.91769348,0 3.09120828,1.25463 1.2021366,1.22675 1.2021366,3.76388 v 32.2021 q 0,2.53713 -1.2021366,3.79176 -1.1735148,1.25463 -3.09120828,1.25463 -1.83182712,0 -3.03396372,-1.25463 -1.1735149,-1.2825 -1.1735149,-3.79176 z M 19.991291,196.1092 v 0.92005 q 2.060806,-2.64865 4.493702,-3.8754 2.461518,-1.25463 5.638592,-1.25463 3.091209,0 5.524105,1.3104 2.432895,1.31038 3.635031,3.70811 0.772803,1.39404 1.001781,3.01111 0.228979,1.61708 0.228979,4.12633 v 14.16334 q 0,2.28622 -1.087648,3.4572 -1.059025,1.17099 -2.776363,1.17099 -1.74596,0 -2.833607,-1.19887 -1.087648,-1.19887 -1.087648,-3.42932 v -12.68567 q 0,-3.76388 -1.087647,-5.7434 -1.059026,-2.0074 -4.264723,-2.0074 -2.089428,0 -3.806766,1.22674 -1.717337,1.19887 -2.518762,3.31779 -0.572446,1.70072 -0.572446,6.35678 v 9.53516 q 0,2.3141 -1.11627,3.48508 -1.087648,1.14311 -2.833607,1.14311 -1.688716,0 -2.776364,-1.19887 -1.087647,-1.19887 -1.087647,-3.42932 v -21.99779 q 0,-2.17469 0.973158,-3.23415 0.973158,-1.08735 2.661874,-1.08735 1.030403,0 1.860449,0.47398 0.830048,0.47397 1.316626,1.4219 0.515201,0.94795 0.515201,2.3141 z m 53.466455,16.78412 q 0,3.15051 -1.574225,5.40884 -1.574228,2.23045 -4.665436,3.40143 -3.062585,1.14311 -7.470419,1.14311 -4.207479,0 -7.21282,-1.25463 -3.005342,-1.25463 -4.436457,-3.12263 -1.431115,-1.89588 -1.431115,-3.79176 0,-1.25463 0.915914,-2.14681 0.915913,-0.89218 2.318407,-0.89218 1.230758,0 1.889071,0.58549 0.658313,0.5855 1.259382,1.64496 1.202136,2.03528 2.86223,3.03899 1.688715,1.0037 4.579567,1.0037 2.347029,0 3.835389,-1.0037 1.516981,-1.03159 1.516981,-2.34197 0,-2.00741 -1.574226,-2.92747 -1.545604,-0.92005 -5.123392,-1.75648 -4.035744,-0.97581 -6.583129,-2.03528 -2.518762,-1.08734 -4.035744,-2.84382 -1.516982,-1.75647 -1.516982,-4.32149 0,-2.28621 1.402493,-4.3215 1.402492,-2.03528 4.121611,-3.23415 2.747741,-1.22675 6.611751,-1.22675 3.033963,0 5.438237,0.61338 2.432896,0.61337 4.035744,1.64495 1.631471,1.03159 2.461518,2.28622 0.858669,1.25462 0.858669,2.45349 0,1.31039 -0.915913,2.1468 -0.887292,0.83642 -2.547386,0.83642 -1.202136,0 -2.060805,-0.66913 -0.830046,-0.66913 -1.917694,-2.0074 -0.887292,-1.11523 -2.089428,-1.78436 -1.202137,-0.66914 -3.262942,-0.66914 -2.11805,0 -3.520542,0.89218 -1.402494,0.8643 -1.402494,2.17468 0,1.19888 1.030403,1.97954 1.030403,0.75277 2.776364,1.25461 1.745959,0.50186 4.808546,1.22675 3.635031,0.86431 5.924815,2.06317 2.318407,1.19886 3.491921,2.84382 1.202136,1.61708 1.202136,3.70812 z m 13.824572,-16.72836 v 0.92006 q 2.203916,-2.64865 4.579567,-3.8754 2.375649,-1.25463 5.380994,-1.25463 3.606401,0 6.640371,1.81224 3.03396,1.81223 4.77992,5.29731 1.77459,3.48508 1.77459,8.25266 0,3.51296 -1.0304,6.4683 -1.00179,2.92747 -2.77637,4.93487 -1.77459,1.97952 -4.20747,3.06686 -2.40428,1.05947 -5.180641,1.05947 -3.348811,0 -5.638595,-1.31039 -2.261161,-1.31039 -4.321966,-3.84753 v 11.43106 q 0,5.0185 -3.749522,5.0185 -2.203917,0 -2.919475,-1.31039 -0.715557,-1.2825 -0.715557,-3.76388 v -32.84335 q 0,-2.17469 0.973159,-3.23415 0.973158,-1.08735 2.661873,-1.08735 1.660093,0 2.690496,1.11523 1.059026,1.08735 1.059026,3.15051 z m 15.312932,11.0686 q 0,-3.01111 -0.94454,-5.15791 -0.94453,-2.17469 -2.633255,-3.31779 -1.660087,-1.17099 -3.692267,-1.17099 -3.234324,0 -5.466864,2.48137 -2.203917,2.48138 -2.203917,7.30473 0,4.54453 2.203917,7.08166 2.203917,2.50926 5.466864,2.50926 1.946316,0 3.606403,-1.08735 1.660099,-1.11522 2.661879,-3.31779 1.00178,-2.20256 1.00178,-5.32519 z m 35.92098,2.0074 h -15.2843 q 0.0286,2.5929 1.05902,4.57242 1.05902,1.97952 2.77636,2.98322 1.74596,1.00371 3.83539,1.00371 1.4025,0 2.54739,-0.30669 1.17351,-0.33457 2.26116,-1.0037 1.08764,-0.69702 2.00355,-1.47767 0.91592,-0.78066 2.37566,-2.11893 0.60106,-0.50185 1.71734,-0.50185 1.20213,0 1.94632,0.64126 0.74417,0.64125 0.74417,1.81224 0,1.03157 -0.83005,2.42561 -0.83004,1.36615 -2.51876,2.64865 -1.66009,1.25463 -4.20748,2.09104 -2.51876,0.83643 -5.81032,0.83643 -7.52766,0 -11.70652,-4.1821 -4.17885,-4.18208 -4.17885,-11.3474 0,-3.37356 1.0304,-6.24526 1.0304,-2.89958 3.00533,-4.96274 1.97494,-2.06317 4.8658,-3.15051 2.89086,-1.11522 6.4114,-1.11522 4.57956,0 7.8425,1.89588 3.29157,1.868 4.92303,4.85122 1.63148,2.98323 1.63148,6.07797 0,2.8717 -1.68871,3.736 -1.68872,0.83642 -4.75131,0.83642 z m -15.2843,-4.32149 h 14.16803 q -0.28622,-3.90328 -2.17529,-5.82705 -1.86046,-1.95164 -4.92304,-1.95164 -2.91947,0 -4.80854,1.97953 -1.86046,1.95163 -2.26116,5.79916 z m 56.32868,8.50358 q 0,1.42192 -0.88729,3.03899 -0.85867,1.61708 -2.66187,3.09474 -1.77459,1.44979 -4.49371,2.34197 -2.71911,0.89218 -6.12516,0.89218 -7.24145,0 -11.30582,-4.09845 -4.06436,-4.12632 -4.06436,-11.04071 0,-4.68395 1.86045,-8.28055 1.86044,-3.59658 5.38099,-5.54823 3.52054,-1.97952 8.41495,-1.97952 3.03397,0 5.55274,0.86429 2.54737,0.8643 4.29333,2.23045 1.77459,1.36615 2.69051,2.92747 0.94452,1.53343 0.94452,2.8717 0,1.36615 -1.05901,2.31408 -1.03041,0.94795 -2.51877,0.94795 -0.97316,0 -1.63147,-0.47397 -0.6297,-0.50185 -1.43112,-1.5892 -1.43111,-2.11893 -3.00533,-3.17838 -1.54561,-1.05947 -3.94989,-1.05947 -3.4633,0 -5.58134,2.64866 -2.11806,2.62077 -2.11806,7.19319 0,2.14681 0.54384,3.95906 0.54382,1.78435 1.57422,3.06686 1.0304,1.25463 2.49014,1.92376 1.45973,0.64125 3.20569,0.64125 2.34704,0 4.00713,-1.05946 1.68871,-1.05946 2.97671,-3.23415 0.71556,-1.28251 1.54561,-2.0074 0.83004,-0.7249 2.03218,-0.7249 1.43111,0 2.37565,1.05947 0.94454,1.05945 0.94454,2.25832 z m 7.24145,-20.85469 h 0.85866 v -4.57242 q 0,-1.84012 0.0858,-2.8717 0.11443,-1.05946 0.57245,-1.81224 0.45795,-0.78066 1.31663,-1.25462 0.85866,-0.50186 1.91769,-0.50186 1.48836,0 2.6905,1.08734 0.80143,0.7249 1.00178,1.78436 0.22898,1.03159 0.22898,2.95535 v 5.18579 h 2.86223 q 1.66008,0 2.51876,0.78065 0.88729,0.75279 0.88729,1.95165 0,1.53343 -1.25938,2.14681 -1.23076,0.61337 -3.54917,0.61337 h -1.45973 v 13.99607 q 0,1.78436 0.11443,2.76017 0.14311,0.94794 0.68693,1.56132 0.57245,0.58549 1.83183,0.58549 0.68693,0 1.86045,-0.22304 1.17351,-0.25093 1.83183,-0.25093 0.94452,0 1.68871,0.75277 0.7728,0.72491 0.7728,1.81225 0,1.84011 -2.06081,2.81594 -2.0608,0.97582 -5.92481,0.97582 -3.66365,0 -5.55273,-1.19887 -1.88907,-1.19887 -2.49014,-3.3178 -0.57244,-2.11892 -0.57244,-5.65976 v -14.60943 h -1.03041 q -1.68871,0 -2.576,-0.78066 -0.8873,-0.78066 -0.8873,-1.97952 0,-1.19886 0.91592,-1.95165 0.94453,-0.78065 2.71912,-0.78065 z m 49.57382,14.80461 q 0,3.40142 -1.08766,6.27312 -1.08764,2.87171 -3.14844,4.93487 -2.06081,2.06317 -4.92304,3.1784 -2.86223,1.08734 -6.44002,1.08734 -3.54916,0 -6.38277,-1.11523 -2.83361,-1.11522 -4.92303,-3.17839 -2.06081,-2.09104 -3.14846,-4.90699 -1.05903,-2.84381 -1.05903,-6.27312 0,-3.4572 1.08765,-6.32891 1.08764,-2.8717 3.11984,-4.90699 2.03218,-2.03527 4.92303,-3.12262 2.89085,-1.11523 6.38277,-1.11523 3.54917,0 6.44002,1.11523 2.89085,1.11522 4.95165,3.17839 2.06081,2.06316 3.11983,4.90699 1.08766,2.84381 1.08766,6.27314 z m -7.84252,0 q 0,-4.65607 -2.11804,-7.24896 -2.08943,-2.5929 -5.6386,-2.5929 -2.28978,0 -4.03574,1.17098 -1.74597,1.14311 -2.69049,3.40144 -0.94454,2.25833 -0.94454,5.26944 0,2.98322 0.91591,5.21367 0.94454,2.23044 2.66188,3.42931 1.74595,1.17099 4.09298,1.17099 3.54917,0 5.6386,-2.5929 2.11804,-2.62078 2.11804,-7.22107 z m 21.75295,4.48876 v 6.35678 q 0,2.3141 -1.11627,3.48508 -1.11626,1.14311 -2.8336,1.14311 -1.68873,0 -2.77637,-1.17099 -1.08765,-1.17098 -1.08765,-3.4572 v -21.18926 q 0,-5.13003 3.80677,-5.13003 1.94631,0 2.80499,1.19888 0.85866,1.19886 0.94453,3.54083 1.40249,-2.34197 2.86223,-3.54083 1.48836,-1.19888 3.94988,-1.19888 2.46151,0 4.77992,1.19888 2.31841,1.19886 2.31841,3.17838 0,1.39404 -1.00178,2.31409 -0.97316,0.89218 -2.11805,0.89218 -0.42934,0 -2.08944,-0.50185 -1.63146,-0.52973 -2.89084,-0.52973 -1.71734,0 -2.80499,0.89218 -1.08764,0.8643 -1.68871,2.59289 -0.60107,1.7286 -0.83005,4.12633 -0.22898,2.36985 -0.22898,5.79916 z"
     id="text27"
     style="font-size:48px;line-height:0px;font-family:'Arial Rounded MT Bold';-inkscape-font-specification:'Arial Rounded MT Bold, Normal';display:none;fill:#4d4d4d;stroke:#ffffff;stroke-width:1.20529"
     aria-label="Inspector" />
  <path
     d="M 73.031287,89.802847 H 57.460756 v 23.140903 q 0,4.96275 -2.404273,7.52776 -2.404273,2.56502 -6.067927,2.56502 -3.835388,0 -6.182417,-2.50926 -2.347028,-2.56502 -2.347028,-7.472 V 50.045107 q 0,-5.464598 2.576007,-7.806569 2.576007,-2.341971 8.185977,-2.341971 h 21.810192 q 9.674337,0 14.883596,1.449792 5.152014,1.39403 8.872909,4.62818 3.778148,3.23415 5.724458,7.918091 1.94632,4.683942 1.94632,10.538868 0,12.49051 -7.899756,18.95881 -7.899751,6.412539 -23.527527,6.412539 z M 68.909676,52.331316 h -11.44892 v 24.981021 h 11.44892 q 6.010683,0 10.017805,-1.226747 4.064366,-1.226746 6.182417,-4.014807 2.11805,-2.78806 2.11805,-7.304718 0,-5.408837 -3.262942,-8.81027 -3.663655,-3.624479 -15.05533,-3.624479 z m 64.285684,17.453258 v 43.995596 q 0,4.57242 -2.23254,6.91439 -2.23254,2.34197 -5.66722,2.34197 -3.43467,0 -5.60997,-2.39774 -2.11804,-2.39772 -2.11804,-6.85862 V 70.230664 q 0,-4.516658 2.11804,-6.802868 2.1753,-2.286209 5.60997,-2.286209 3.43468,0 5.66722,2.286209 2.23254,2.28621 2.23254,6.356778 z m -7.72802,-15.72466 q -3.26295,0 -5.60997,-1.951642 -2.28978,-1.951643 -2.28978,-5.52036 0,-3.23415 2.34702,-5.297314 2.40427,-2.118926 5.55273,-2.118926 3.03396,0 5.38099,1.895881 2.34703,1.895881 2.34703,5.520359 0,3.512956 -2.28979,5.52036 -2.28978,1.951642 -5.43823,1.951642 z"
     id="text28"
     style="font-size:96px;line-height:0px;font-family:'Arial Rounded MT Bold';-inkscape-font-specification:'Arial Rounded MT Bold, Normal';display:none;fill:#4d4d4d;stroke:#ffffff;stroke-width:2.01874"
     aria-label="Pi" />
  <path
     d="M 91.586154,92.895133 H 76.015623 v 23.140907 q 0,4.96274 -2.404273,7.52776 -2.404273,2.56501 -6.067927,2.56501 -3.835389,0 -6.182417,-2.50925 -2.347029,-2.56501 -2.347029,-7.472 V 53.137393 q 0,-5.464598 2.576007,-7.806569 2.576007,-2.34197 8.185978,-2.34197 h 21.810192 q 9.674336,0 14.883606,1.449791 5.15201,1.39403 8.8729,4.62818 3.77815,3.23415 5.72446,7.918092 1.94632,4.683941 1.94632,10.538868 0,12.49051 -7.89976,18.95881 -7.89975,6.412538 -23.527526,6.412538 z m -4.121611,-37.47153 h -11.44892 v 24.98102 h 11.44892 q 6.010683,0 10.017805,-1.226746 4.064372,-1.226747 6.182412,-4.014807 2.11806,-2.788061 2.11806,-7.304718 0,-5.408837 -3.26295,-8.810271 -3.663652,-3.624478 -15.055327,-3.624478 z"
     id="text50"
     style="font-size:96px;line-height:0px;font-family:'Arial Rounded MT Bold';-inkscape-font-specification:'Arial Rounded MT Bold, Normal';stroke:#ffffff;stroke-width:1.80794;stroke-dasharray:none"
     aria-label="P" />
  <g
     id="g50"
     style="fill:#0000ff;stroke:#0000ff;stroke-width:3.31869954;stroke-dasharray:none"
     transform="matrix(1.2212181,0,0,1.1895724,-28.20189,-24.322037)">
    <g
       id="g49"
       style="display:inline;fill:#0000ff;stroke:#0000ff;stroke-width:3.31869954;stroke-dasharray:none">
      <path
         style="fill:#0000ff;stroke:#0000ff;stroke-width:3.31869954;stroke-dasharray:none"
         d="M 84,152.15473 V 32.938106 Z"
         id="path47-9-5" />
      <path
         style="fill:#0000ff;stroke:#0000ff;stroke-width:3.31869954;stroke-dasharray:none"
         d="M 112,149 V 36 Z"
         id="path47-9-1-7" />
      <path
         style="fill:#0000ff;stroke:#0000ff;stroke-width:3.31869954;stroke-dasharray:none"
         d="M 56,140 V 43 Z"
         id="path47" />
      <path
         style="fill:#0000ff;stroke:#0000ff;stroke-width:3.31869954;stroke-dasharray:none"
         d="M 139.76905,129 V 60.309469 Z"
         id="path47-9-1-14-3-2-6" />
    </g>
    <g
       id="g48"
       style="display:inline;fill:#0000ff;stroke:#0000ff;stroke-width:3.31869954;stroke-dasharray:none">
      <path
         style="fill:#0000ff;stroke:#0000ff;stroke-width:3.31869954;stroke-dasharray:none"
         d="M 150.86497,84.887792 H 32.864966 Z"
         id="path47-9-1-1-3" />
      <path
         style="fill:#0000ff;stroke:#0000ff;stroke-width:3.31869954;stroke-dasharray:none"
         d="M 147.86497,112.88779 H 35.864966 Z"
         id="path47-9-8-4" />
      <path
         style="fill:#0000ff;stroke:#0000ff;stroke-width:3.31869954;stroke-dasharray:none"
         d="M 140.86497,56.887792 H 42.864966 Z"
         id="path47-9-1-14-3-1" />
      <path
         style="fill:#0000ff;stroke:#0000ff;stroke-width:3.31869954;stroke-dasharray:none"
         d="M 125.86497,140.88779 H 59.264966 Z"
         id="path47-9-1-14-3-2-6-8-7" />
    </g>
  </g>
  <g
     transform="matrix(1.0690299,0,0,1.0413279,-6.6620452,-834.57549)"
     id="g26">
    <path
       d="M 83.875,810.02 C 43.617,810.02 11,842.637 11,882.895 c 0,40.258 32.617,72.875 72.875,72.875 13.272,0 25.717,-3.5553 36.438,-9.75 3.3047,3.0396 7.6874,4.9375 12.531,4.9375 1.9922,0 3.9192,-0.3244 5.7188,-0.9063 l 11.781,11.781 c 0.0921,2.5836 1.0408,4.9603 2.5938,6.8125 l -2.3438,2.3438 67.844,67.844 2.6563,-2.6562 c 2.0043,1.9184 4.7252,3.125 7.7188,3.125 6.164,0 11.156,-5.0235 11.156,-11.188 0,-3.0019 -1.1971,-5.7128 -3.125,-7.7188 l 2.5,-2.5 -67.812,-67.812 -2.8438,2.8125 c -1.9118,-1.6085 -4.3813,-2.5884 -7.0625,-2.625 l -11.375,-11.375 c 0.7581,-2.0246 1.1563,-4.2123 1.1563,-6.5 0,-4.767 -1.8583,-9.0573 -4.8125,-12.344 6.466,-10.881 10.188,-23.58 10.188,-37.156 0,-40.258 -32.648,-72.875 -72.906,-72.875 z m 0,5.9688 c 5.4454,0.0123 10.902,0.692 16.188,2 25.903,6.0255 46.397,28.998 50.062,55.25 4.1167,25.725 -8.7369,52.824 -30.812,66.469 -23.188,14.994 -55.437,12.954 -76.906,-4.25 -20.58,-15.851 -29.952,-44.236 -23.375,-69.281 6.9621,-28.849 35.176,-50.684 64.844,-50.188 z m 61.594,105.88 c -0.3649,0.607 -0.7284,1.1946 -1.125,1.7813 -0.7844,1.1602 -1.6238,2.2908 -2.4688,3.4063 -0.567,0.7485 -1.1219,1.4961 -1.7188,2.2188 -0.7431,0.8998 -1.5248,1.767 -2.3125,2.625 1.413,-1.5537 2.7608,-3.1696 4.0313,-4.8438 1.2705,-1.6742 2.4636,-3.4065 3.5938,-5.1875 z"
       fill-rule="evenodd"
       filter="url(#q)"
       id="path15" />
    <path
       transform="rotate(45)"
       d="m 763.72,557.65 h 26.098 v 16.163 H 763.72 Z"
       fill="url(#n)"
       fill-rule="evenodd"
       id="path16"
       style="fill:url(#n)" />
    <path
       d="m 83.874,815.99 c -29.668,-0.4962 -57.869,21.347 -64.831,50.196 -6.5766,25.045 2.769,53.435 23.349,69.286 21.47,17.204 53.745,19.232 76.933,4.2375 22.076,-13.645 34.933,-40.742 30.816,-66.467 -3.6651,-26.252 -24.189,-49.238 -50.092,-55.263 -5.286,-1.308 -10.73,-1.9771 -16.175,-1.9894 z"
       fill="url(#h)"
       fill-rule="evenodd"
       opacity="0.404"
       id="path17"
       style="display:none;fill:url(#h)" />
    <path
       d="m 83.8738,810.0184 c -40.2578,0 -72.8814,32.6236 -72.8814,72.8814 0,40.2578 32.6236,72.8814 72.8814,72.8814 40.2578,0 72.9185,-32.6236 72.9185,-72.8814 0,-40.2578 -32.6607,-72.8814 -72.9185,-72.8814 z m 0,5.9684 c 2.3093,0 4.6091,0.1423 6.8581,0.3707 2.249,0.2284 4.4581,0.5553 6.6357,1.0009 2.1776,0.4456 4.3184,1.0166 6.4133,1.6682 2.0949,0.6516 4.1528,1.3779 6.1538,2.2243 2.001,0.8464 3.9242,1.7875 5.8201,2.8174 1.8959,1.0299 3.744,2.1712 5.5236,3.3735 1.7796,1.2023 3.5008,2.492 5.1529,3.8554 1.6521,1.3634 3.2317,2.7869 4.7451,4.3002 1.5134,1.5133 2.9739,3.093 4.3373,4.7451 1.3634,1.6521 2.6531,3.3733 3.8554,5.1529 1.2023,1.7796 2.3065,3.6277 3.3364,5.5236 1.0299,1.8959 1.971,3.8562 2.8174,5.8572 0.8464,2.001 1.6098,4.0218 2.2613,6.1167 0.6515,2.0949 1.1855,4.2357 1.6311,6.4133 0.4456,2.1776 0.8096,4.4237 1.038,6.6728 0.2284,2.2491 0.3336,4.5118 0.3336,6.821 0,2.3092 -0.1052,4.6091 -0.3336,6.8581 -0.2284,2.249 -0.5924,4.4581 -1.038,6.6357 -0.4456,2.1776 -0.9795,4.3184 -1.6311,6.4133 -0.6516,2.0949 -1.415,4.1528 -2.2613,6.1538 -0.8463,2.001 -1.7875,3.9242 -2.8174,5.8201 -1.0299,1.8959 -2.1341,3.744 -3.3364,5.5236 -1.2023,1.7796 -2.492,3.5008 -3.8554,5.1528 -1.3634,1.652 -2.824,3.2317 -4.3373,4.7451 -1.5133,1.5134 -3.093,2.9739 -4.7451,4.3373 -1.6521,1.3634 -3.3733,2.6531 -5.1529,3.8554 -1.7796,1.2023 -3.6277,2.3065 -5.5236,3.3364 -1.8959,1.0299 -3.8191,1.971 -5.8201,2.8174 -2.001,0.8464 -4.0589,1.6098 -6.1538,2.2613 -2.0949,0.6515 -4.2357,1.1855 -6.4133,1.6311 -2.1776,0.4456 -4.3867,0.8096 -6.6357,1.038 -2.249,0.2284 -4.5488,0.3336 -6.8581,0.3336 -2.3093,0 -4.572,-0.1052 -6.821,-0.3336 -2.249,-0.2284 -4.4952,-0.5924 -6.6728,-1.038 -2.1776,-0.4456 -4.2813,-0.9795 -6.3762,-1.6311 -2.0949,-0.6516 -4.1528,-1.415 -6.1538,-2.2613 -2.001,-0.8463 -3.9613,-1.7875 -5.8572,-2.8174 -1.8959,-1.0299 -3.744,-2.1341 -5.5236,-3.3364 -1.7796,-1.2023 -3.5008,-2.492 -5.1529,-3.8554 -1.6521,-1.3634 -3.2317,-2.824 -4.7451,-4.3373 -1.5134,-1.5133 -2.9368,-3.093 -4.3002,-4.7451 -1.3634,-1.6521 -2.6531,-3.3733 -3.8554,-5.1528 -1.2023,-1.7795 -2.3435,-3.6277 -3.3735,-5.5236 -1.03,-1.8959 -1.971,-3.8191 -2.8174,-5.8201 -0.8464,-2.001 -1.5727,-4.0589 -2.2243,-6.1538 -0.6516,-2.0949 -1.2226,-4.2357 -1.6682,-6.4133 -0.4456,-2.1776 -0.7725,-4.3867 -1.0009,-6.6357 -0.2284,-2.249 -0.3336,-4.5488 -0.3336,-6.8581 0,-2.3093 0.1052,-4.572 0.3336,-6.821 0.2284,-2.249 0.5553,-4.4952 1.0009,-6.6728 0.4456,-2.1776 1.0166,-4.3184 1.6682,-6.4133 0.6516,-2.0949 1.3779,-4.1157 2.2243,-6.1167 0.8464,-2.001 1.7875,-3.9613 2.8174,-5.8572 1.0299,-1.8959 2.1712,-3.744 3.3735,-5.5236 1.2023,-1.7796 2.492,-3.5008 3.8554,-5.1529 1.3634,-1.6521 2.7869,-3.2317 4.3002,-4.7451 1.5133,-1.5134 3.093,-2.9368 4.7451,-4.3002 1.6521,-1.3634 3.3733,-2.6531 5.1529,-3.8554 1.7796,-1.2023 3.6277,-2.3435 5.5236,-3.3735 1.8959,-1.03 3.8562,-1.971 5.8572,-2.8174 2.001,-0.8464 4.0589,-1.5727 6.1538,-2.2243 2.0949,-0.6516 4.1986,-1.2226 6.3762,-1.6682 2.1776,-0.4456 4.4237,-0.7725 6.6728,-1.0009 2.2491,-0.2284 4.5118,-0.3707 6.821,-0.3707 z"
       fill="url(#m)"
       fill-rule="evenodd"
       id="path18"
       style="display:inline;fill:url(#m)" />
    <path
       d="m 120.28,945.99 c 3.3084,3.057 7.7073,4.9675 12.567,4.9675 10.25,0 18.572,-8.3227 18.572,-18.572 0,-4.7828 -1.885,-9.0911 -4.8563,-12.382 -0.7254,1.2207 -1.431,2.4596 -2.2243,3.633 -1.3107,1.9386 -2.7027,3.8351 -4.189,5.6348 -1.4863,1.7997 -3.0583,3.5043 -4.708,5.1529 -1.6497,1.6486 -3.3891,3.2228 -5.1899,4.708 -1.8008,1.4852 -3.658,2.8794 -5.5977,4.189 -1.406,0.9492 -2.901,1.8176 -4.3744,2.6691 z"
       fill="url(#l)"
       fill-rule="evenodd"
       id="path19"
       style="fill:url(#l)" />
    <path
       transform="matrix(1.035,0,0,1.035,2.3041,801.68)"
       d="m 164.58,154.35 c 0,5.9555 -4.8279,10.783 -10.783,10.783 -5.9551,0 -10.783,-4.8279 -10.783,-10.783 0,-5.9551 4.8279,-10.783 10.783,-10.783 5.9551,0 10.783,4.8279 10.783,10.783 z"
       fill="url(#g)"
       fill-rule="evenodd"
       id="path24"
       style="fill:url(#g)" />
    <path
       transform="matrix(1.035,0,0,1.035,69.619,868.37)"
       d="m 164.58,154.35 c 0,5.9555 -4.8279,10.783 -10.783,10.783 -5.9551,0 -10.783,-4.8279 -10.783,-10.783 0,-5.9551 4.8279,-10.783 10.783,-10.783 5.9551,0 10.783,4.8279 10.783,10.783 z"
       fill="url(#k)"
       fill-rule="evenodd"
       id="path25"
       style="fill:url(#k)" />
    <path
       transform="rotate(45)"
       d="m 793.08,550.52 h 95.93 v 29.584 h -95.93 z"
       fill="url(#j)"
       fill-rule="evenodd"
       id="path26"
       style="fill:url(#j)" />
  </g>
</svg>
