<?xml version="1.0" encoding="UTF-8" standalone="no"?>
<svg
   enable-background="new 0 0 231.789 232.34"
   viewBox="0 0 231.789 232.34"
   version="1.1"
   id="svg36"
   sodipodi:docname="magnify-147244-clean-handle.svg"
   inkscape:version="1.4.2 (ebf0e94, 2025-05-08)"
   xmlns:inkscape="http://www.inkscape.org/namespaces/inkscape"
   xmlns:sodipodi="http://sodipodi.sourceforge.net/DTD/sodipodi-0.dtd"
   xmlns:xlink="http://www.w3.org/1999/xlink"
   xmlns="http://www.w3.org/2000/svg"
   xmlns:svg="http://www.w3.org/2000/svg">
  <sodipodi:namedview
     id="namedview36"
     pagecolor="#ffffff"
     bordercolor="#000000"
     borderopacity="0.25"
     inkscape:showpageshadow="2"
     inkscape:pageopacity="0.0"
     inkscape:pagecheckerboard="0"
     inkscape:deskcolor="#d1d1d1"
     inkscape:zoom="3.4733581"
     inkscape:cx="116.02605"
     inkscape:cy="116.17"
     inkscape:window-width="1920"
     inkscape:window-height="1009"
     inkscape:window-x="1912"
     inkscape:window-y="-8"
     inkscape:window-maximized="1"
     inkscape:current-layer="svg36" />
  <defs
     id="defs22">
    <filter
       id="b"
       x="-0.012895653"
       y="-0.033401217"
       width="1.0257913"
       height="1.0668024">
      <feGaussianBlur
         stdDeviation=".73109"
         id="feGaussianBlur1" />
    </filter>
    <filter
       id="l"
       x="-0.032585548"
       y="-0.040213704"
       width="1.0651711"
       height="1.0804274">
      <feGaussianBlur
         stdDeviation="1.50147"
         id="feGaussianBlur2" />
    </filter>
    <filter
       id="k"
       x="-0.032587554"
       y="-0.040210478"
       width="1.0651751"
       height="1.080421">
      <feGaussianBlur
         stdDeviation="1.50161"
         id="feGaussianBlur3" />
    </filter>
    <filter
       id="j"
       x="-0.0092592251"
       y="-0.017045267"
       width="1.0185185"
       height="1.0340905">
      <feGaussianBlur
         stdDeviation=".49484"
         id="feGaussianBlur4" />
    </filter>
    <linearGradient
       id="a">
      <stop
         stop-color="#2c0000"
         offset="0"
         id="stop4" />
      <stop
         stop-color="#b7b7b7"
         offset="1"
         id="stop5" />
    </linearGradient>
    <linearGradient
       id="i"
       x2="0"
       y1="77.524"
       y2="7.8955"
       gradientUnits="userSpaceOnUse">
      <stop
         stop-color="#fff"
         offset="0"
         id="stop6" />
      <stop
         stop-color="#fcfdfe"
         offset=".2414"
         id="stop7" />
      <stop
         stop-color="#f2f7f9"
         offset=".4222"
         id="stop8" />
      <stop
         stop-color="#e2edf1"
         offset=".5833"
         id="stop9" />
      <stop
         stop-color="#ccdee6"
         offset=".7329"
         id="stop10" />
      <stop
         stop-color="#aeccd8"
         offset=".8733"
         id="stop11" />
      <stop
         stop-color="#8db7c8"
         offset="1"
         id="stop12" />
    </linearGradient>
    <linearGradient
       id="h"
       x1="148.72"
       x2="173.26"
       y1="172.41"
       y2="147.87"
       gradientUnits="userSpaceOnUse">
      <stop
         offset="0"
         id="stop13" />
      <stop
         stop-color="#721700"
         offset="1"
         id="stop14" />
    </linearGradient>
    <linearGradient
       id="g"
       x1="162.19"
       x2="189.04"
       y1="191.56"
       y2="164.72"
       gradientUnits="userSpaceOnUse">
      <stop
         stop-color="#2a0000"
         offset="0"
         id="stop15" />
      <stop
         stop-color="#6b1d07"
         offset=".5"
         id="stop16" />
      <stop
         stop-color="#c04a20"
         offset="1"
         id="stop17" />
    </linearGradient>
    <linearGradient
       id="m"
       x2="0"
       y1="145.04"
       y2="7.6545"
       gradientUnits="userSpaceOnUse">
      <stop
         stop-color="#fff"
         offset="0"
         id="stop18" />
      <stop
         stop-color="#b8d2dd"
         offset="1"
         id="stop19" />
    </linearGradient>
    <linearGradient
       id="f"
       x2="0"
       y1="150.97"
       y2="-2"
       gradientUnits="userSpaceOnUse"
       xlink:href="#a" />
    <linearGradient
       id="e"
       x1="-10.863"
       x2="9.6495"
       gradientUnits="userSpaceOnUse"
       xlink:href="#a" />
    <linearGradient
       id="d"
       x1="-10.863"
       x2="42.423"
       gradientUnits="userSpaceOnUse"
       xlink:href="#a" />
    <radialGradient
       id="c"
       cx="76.334"
       cy="76.347"
       r="68.693"
       gradientUnits="userSpaceOnUse">
      <stop
         stop-color="#fff"
         stop-opacity="0"
         offset="0"
         id="stop20" />
      <stop
         stop-color="#fff"
         stop-opacity="0"
         offset=".3617"
         id="stop21" />
      <stop
         stop-color="#294a56"
         offset="1"
         id="stop22" />
    </radialGradient>
  </defs>
  <path
     transform="matrix(.70711,-.70711,.70711,.70711,0,0)"
     d="m-10.863 167.19h20.512v27.295h-20.512z"
     fill="url(#e)"
     stroke="url(#d)"
     stroke-linecap="round"
     stroke-linejoin="round"
     stroke-miterlimit="5.8"
     id="path22" />
  <path
     d="m223.11 196.95c4.4731 4.4721 4.4731 11.723 0 16.196l-10.5 10.5c-4.4731 4.474-11.724 4.4721-16.196 0l-72.168-72.169c-4.4721-4.4731-4.4721-11.724 0-16.196l10.501-10.501c4.4721-4.4721 11.724-4.4731 16.196 0l72.167 72.17z"
     fill="url(#g)"
     stroke="url(#h)"
     id="path23" />
  <path
     d="m145.03 76.347c0 37.938-30.755 68.693-68.693 68.693s-68.693-30.755-68.693-68.693 30.755-68.693 68.693-68.693 68.693 30.755 68.693 68.693z"
     fill="url(#m)"
     id="path25" />
  <path
     d="m145.03 76.347c0 37.938-30.755 68.693-68.693 68.693s-68.693-30.755-68.693-68.693 30.755-68.693 68.693-68.693 68.693 30.755 68.693 68.693z"
     fill="url(#c)"
     id="path26" />
  <path
     transform="matrix(.95436 0 0 .95436 5.2556 5.2681)"
     d="m76.679 68.038c34.275-20.731 62.428-1.127 62.428-1.127-1.273-32.799-29.489-59.015-64.109-59.015-35.431 0-64.154 27.458-64.154 61.331 0.00105-1e-3 31.56 19.542 65.835-1.189z"
     fill="url(#i)"
     filter="url(#j)"
     opacity=".7"
     id="path27" />
  <path
     transform="matrix(.95436 0 0 .95436 5.2556 5.2681)"
     d="m74.469-2c-42.149 0-76.469 34.32-76.469 76.469s34.319 76.5 76.469 76.5 76.5-34.35 76.5-76.5-34.351-76.469-76.5-76.469zm0 9c37.229 0 67.5 30.24 67.5 67.469s-30.272 67.5-67.5 67.5-67.469-30.271-67.469-67.5 30.239-67.469 67.469-67.469z"
     fill="url(#f)"
     id="path28" />
  <path
     transform="matrix(.95436 0 0 .95436 5.2556 5.2681)"
     d="m74.469-0.09375c-41.13 0-74.562 33.433-74.562 74.562s33.433 74.594 74.562 74.594 74.594-33.464 74.594-74.594-33.464-74.562-74.594-74.562zm0 5.1875c38.247 0 69.406 31.128 69.406 69.375s-31.16 69.406-69.406 69.406-69.375-31.16-69.375-69.406 31.128-69.375 69.375-69.375z"
     fill="#f3d2af"
     filter="url(#b)"
     opacity=".15086"
     id="path29" />
  <path
     transform="matrix(.95436 0 0 .95436 5.2556 5.2681)"
     d="m121.34 142.72c-0.62505 3.7007 0.48795 7.6436 3.3438 10.5l75.625 75.594c4.686 4.686 12.282 4.688 16.969 0l11-11c2.8506-2.8506 3.9293-6.7746 3.3125-10.469-0.40066 2.3718-1.4819 4.6382-3.3125 6.4688l-11 11c-4.687 4.688-12.283 4.686-16.969 0l-75.625-75.594c-1.8302-1.8306-2.9432-4.1282-3.3438-6.5z"
     filter="url(#l)"
     opacity=".5"
     id="path30" />
  <path
     transform="matrix(.95436 0 0 .95436 5.2556 5.2681)"
     d="m144.16 121.72c-3.0712 1.2e-4 -6.1257 1.157-8.4688 3.5l-11 11c-2.8558 2.8558-3.9688 6.7991-3.3438 10.5 0.40057-2.3717 1.5136-4.6698 3.3438-6.5l11-11c4.686-4.686 12.283-4.687 16.969 0l75.625 75.625c1.8364 1.836 2.9152 4.1201 3.3125 6.5 0.62518-3.7009-0.45609-7.6442-3.3125-10.5l-75.625-75.625c-2.343-2.3435-5.4288-3.5001-8.5-3.5z"
     fill="#fff"
     filter="url(#k)"
     opacity=".5"
     id="path31" />
  <path
     transform="matrix(.95436 0 0 .95436 5.2556 5.2681)"
     d="m74.469-0.09375c-32.33 0-59.9 20.654-70.219 49.469 1.4677 1.0574 2.9464 2.0793 4.4688 3.0625 9.2382-27.471 35.21-47.344 65.75-47.344 26.972 0 50.395 15.491 61.875 38.031 1.3551-1.1843 2.6755-2.4057 3.9688-3.6562-12.559-23.53-37.354-39.562-65.844-39.562z"
     fill="#fff"
     filter="url(#b)"
     opacity=".4"
     id="path32" />
</svg>
