<?xml version="1.0" encoding="UTF-8"?>
<svg enable-background="new 0 0 231.789 232.34" viewBox="0 0 231.789 232.34" xmlns="http://www.w3.org/2000/svg" xmlns:xlink="http://www.w3.org/1999/xlink">
 <defs>
  <filter id="b">
   <feGaussianBlur stdDeviation=".73109"/>
  </filter>
  <filter id="l">
   <feGaussianBlur stdDeviation="1.50147"/>
  </filter>
  <filter id="k">
   <feGaussianBlur stdDeviation="1.50161"/>
  </filter>
  <filter id="j">
   <feGaussianBlur stdDeviation=".49484"/>
  </filter>
  <linearGradient id="a">
   <stop stop-color="#2c0000" offset="0"/>
   <stop stop-color="#b7b7b7" offset="1"/>
  </linearGradient>
  <linearGradient id="i" x2="0" y1="77.524" y2="7.8955" gradientUnits="userSpaceOnUse">
   <stop stop-color="#fff" offset="0"/>
   <stop stop-color="#fcfdfe" offset=".2414"/>
   <stop stop-color="#f2f7f9" offset=".4222"/>
   <stop stop-color="#e2edf1" offset=".5833"/>
   <stop stop-color="#ccdee6" offset=".7329"/>
   <stop stop-color="#aeccd8" offset=".8733"/>
   <stop stop-color="#8db7c8" offset="1"/>
  </linearGradient>
  <linearGradient id="h" x1="148.72" x2="173.26" y1="172.41" y2="147.87" gradientUnits="userSpaceOnUse">
   <stop offset="0"/>
   <stop stop-color="#721700" offset="1"/>
  </linearGradient>
  <linearGradient id="g" x1="162.19" x2="189.04" y1="191.56" y2="164.72" gradientUnits="userSpaceOnUse">
   <stop stop-color="#2a0000" offset="0"/>
   <stop stop-color="#6b1d07" offset=".5"/>
   <stop stop-color="#c04a20" offset="1"/>
  </linearGradient>
  <linearGradient id="m" x2="0" y1="145.04" y2="7.6545" gradientUnits="userSpaceOnUse">
   <stop stop-color="#fff" offset="0"/>
   <stop stop-color="#b8d2dd" offset="1"/>
  </linearGradient>
  <linearGradient id="f" x2="0" y1="150.97" y2="-2" gradientUnits="userSpaceOnUse" xlink:href="#a"/>
  <linearGradient id="e" x1="-10.863" x2="9.6495" gradientUnits="userSpaceOnUse" xlink:href="#a"/>
  <linearGradient id="d" x1="-10.863" x2="42.423" gradientUnits="userSpaceOnUse" xlink:href="#a"/>
  <radialGradient id="c" cx="76.334" cy="76.347" r="68.693" gradientUnits="userSpaceOnUse">
   <stop stop-color="#fff" stop-opacity="0" offset="0"/>
   <stop stop-color="#fff" stop-opacity="0" offset=".3617"/>
   <stop stop-color="#294a56" offset="1"/>
  </radialGradient>
 </defs>
 <path transform="matrix(.70711,-.70711,.70711,.70711,0,0)" d="m-10.863 167.19h20.512v27.295h-20.512z" fill="url(#e)" stroke="url(#d)" stroke-linecap="round" stroke-linejoin="round" stroke-miterlimit="5.8"/>
 <path d="m223.11 196.95c4.4731 4.4721 4.4731 11.723 0 16.196l-10.5 10.5c-4.4731 4.474-11.724 4.4721-16.196 0l-72.168-72.169c-4.4721-4.4731-4.4721-11.724 0-16.196l10.501-10.501c4.4721-4.4721 11.724-4.4731 16.196 0l72.167 72.17z" fill="url(#g)" stroke="url(#h)"/>
 <path d="m149.44 123.28 4.4596 17.838-18.85-4.7126 4.7126 18.85-15.687-3.9219 6.8633 6.8633 8.8242 1.7712 5.6614 0.91721-0.94884-5.6298-2.3721-11.797 11.797 2.3721 5.6298 0.94884-0.91722-5.6614-2.1823-10.848-6.9898-6.9898z" fill="#ff8035" fill-opacity=".2" stroke="#480000" stroke-opacity=".25333"/>
 <path d="m145.03 76.347c0 37.938-30.755 68.693-68.693 68.693s-68.693-30.755-68.693-68.693 30.755-68.693 68.693-68.693 68.693 30.755 68.693 68.693z" fill="url(#m)"/>
 <path d="m145.03 76.347c0 37.938-30.755 68.693-68.693 68.693s-68.693-30.755-68.693-68.693 30.755-68.693 68.693-68.693 68.693 30.755 68.693 68.693z" fill="url(#c)"/>
 <path transform="matrix(.95436 0 0 .95436 5.2556 5.2681)" d="m76.679 68.038c34.275-20.731 62.428-1.127 62.428-1.127-1.273-32.799-29.489-59.015-64.109-59.015-35.431 0-64.154 27.458-64.154 61.331 0.00105-1e-3 31.56 19.542 65.835-1.189z" fill="url(#i)" filter="url(#j)" opacity=".7"/>
 <path transform="matrix(.95436 0 0 .95436 5.2556 5.2681)" d="m74.469-2c-42.149 0-76.469 34.32-76.469 76.469s34.319 76.5 76.469 76.5 76.5-34.35 76.5-76.5-34.351-76.469-76.5-76.469zm0 9c37.229 0 67.5 30.24 67.5 67.469s-30.272 67.5-67.5 67.5-67.469-30.271-67.469-67.5 30.239-67.469 67.469-67.469z" fill="url(#f)"/>
 <path transform="matrix(.95436 0 0 .95436 5.2556 5.2681)" d="m74.469-0.09375c-41.13 0-74.562 33.433-74.562 74.562s33.433 74.594 74.562 74.594 74.594-33.464 74.594-74.594-33.464-74.562-74.594-74.562zm0 5.1875c38.247 0 69.406 31.128 69.406 69.375s-31.16 69.406-69.406 69.406-69.375-31.16-69.375-69.406 31.128-69.375 69.375-69.375z" fill="#f3d2af" filter="url(#b)" opacity=".15086"/>
 <path transform="matrix(.95436 0 0 .95436 5.2556 5.2681)" d="m121.34 142.72c-0.62505 3.7007 0.48795 7.6436 3.3438 10.5l75.625 75.594c4.686 4.686 12.282 4.688 16.969 0l11-11c2.8506-2.8506 3.9293-6.7746 3.3125-10.469-0.40066 2.3718-1.4819 4.6382-3.3125 6.4688l-11 11c-4.687 4.688-12.283 4.686-16.969 0l-75.625-75.594c-1.8302-1.8306-2.9432-4.1282-3.3438-6.5z" filter="url(#l)" opacity=".5"/>
 <path transform="matrix(.95436 0 0 .95436 5.2556 5.2681)" d="m144.16 121.72c-3.0712 1.2e-4 -6.1257 1.157-8.4688 3.5l-11 11c-2.8558 2.8558-3.9688 6.7991-3.3438 10.5 0.40057-2.3717 1.5136-4.6698 3.3438-6.5l11-11c4.686-4.686 12.283-4.687 16.969 0l75.625 75.625c1.8364 1.836 2.9152 4.1201 3.3125 6.5 0.62518-3.7009-0.45609-7.6442-3.3125-10.5l-75.625-75.625c-2.343-2.3435-5.4288-3.5001-8.5-3.5z" fill="#fff" filter="url(#k)" opacity=".5"/>
 <path transform="matrix(.95436 0 0 .95436 5.2556 5.2681)" d="m74.469-0.09375c-32.33 0-59.9 20.654-70.219 49.469 1.4677 1.0574 2.9464 2.0793 4.4688 3.0625 9.2382-27.471 35.21-47.344 65.75-47.344 26.972 0 50.395 15.491 61.875 38.031 1.3551-1.1843 2.6755-2.4057 3.9688-3.6562-12.559-23.53-37.354-39.562-65.844-39.562z" fill="#fff" filter="url(#b)" opacity=".4"/>
 <path d="m163.61 137.45 4.4596 17.838-18.85-4.7126 4.7126 18.85-15.687-3.9219 6.8633 6.8633 8.8242 1.7712 5.6614 0.91722-0.94884-5.6298-2.3721-11.797 11.797 2.3721 5.6298 0.94884-0.91721-5.6614-2.1823-10.848-6.9898-6.9898z" fill="#ff8035" fill-opacity=".2" stroke="#480000" stroke-opacity=".25333"/>
 <path d="m177.78 151.62 4.4596 17.838-18.85-4.7126 4.7126 18.85-15.687-3.9219 6.8633 6.8633 8.8242 1.7712 5.6614 0.91721-0.94884-5.6298-2.3721-11.797 11.797 2.3721 5.6298 0.94884-0.91721-5.6614-2.1823-10.848-6.9898-6.9898z" fill="#ff8035" fill-opacity=".2" stroke="#480000" stroke-opacity=".25333"/>
 <path d="m191.95 165.79 4.4596 17.838-18.85-4.7126 4.7126 18.85-15.687-3.9219 6.8633 6.8633 8.8242 1.7712 5.6614 0.91721-0.94884-5.6298-2.3721-11.797 11.797 2.3721 5.6298 0.94884-0.91721-5.6614-2.1823-10.848-6.9898-6.9898z" fill="#ff8035" fill-opacity=".2" stroke="#480000" stroke-opacity=".25333"/>
 <path d="m206.12 179.96 4.4595 17.838-18.85-4.7126 4.7126 18.85-15.687-3.9219 6.8633 6.8633 8.8242 1.7712 5.6614 0.91721-0.94884-5.6298-2.3721-11.797 11.797 2.3721 5.6298 0.94884-0.91721-5.6614-2.1823-10.848-6.9898-6.9898z" fill="#ff8035" fill-opacity=".2" stroke="#480000" stroke-opacity=".25333"/>
</svg>
